<svg width="2862" height="72" viewBox="0 0 2862 72" fill="none" xmlns="http://www.w3.org/2000/svg">
<rect x="1421.87" y="0.106567" width="1440" height="71.4629" fill="black"/>
<rect x="1440.51" y="18.2672" width="25.4947" height="35.1416" rx="4" fill="#EBE6E2"/>
<rect x="2094.52" y="18.2672" width="25.4947" height="35.1416" rx="4" fill="#EBE6E2"/>
<rect x="1767.51" y="18.2672" width="25.4947" height="35.1416" rx="4" fill="#EBE6E2"/>
<rect x="2421.52" y="18.2672" width="25.4947" height="35.1416" rx="4" fill="#EBE6E2"/>
<rect x="1604.01" y="18.2672" width="25.4947" height="35.1416" rx="4" fill="#EBE6E2"/>
<rect x="2258.02" y="18.2672" width="25.4947" height="35.1416" rx="4" fill="#EBE6E2"/>
<rect x="1931.02" y="18.2672" width="25.4947" height="35.1416" rx="4" fill="#EBE6E2"/>
<rect x="2585.03" y="18.2672" width="25.4947" height="35.1416" rx="4" fill="#EBE6E2"/>
<rect x="1496.79" y="18.2672" width="25.4947" height="35.1416" rx="4" fill="#EBE6E2"/>
<rect x="2150.81" y="18.2672" width="25.4947" height="35.1416" rx="4" fill="#EBE6E2"/>
<rect x="1823.8" y="18.2672" width="25.4947" height="35.1416" rx="4" fill="#EBE6E2"/>
<rect x="2477.81" y="18.2672" width="25.4947" height="35.1416" rx="4" fill="#EBE6E2"/>
<rect x="1660.3" y="18.2672" width="25.4947" height="35.1416" rx="4" fill="#EBE6E2"/>
<rect x="2314.31" y="18.2672" width="25.4947" height="35.1416" rx="4" fill="#EBE6E2"/>
<rect x="1987.3" y="18.2672" width="25.4947" height="35.1416" rx="4" fill="#EBE6E2"/>
<rect x="2641.31" y="18.2672" width="25.4947" height="35.1416" rx="4" fill="#EBE6E2"/>
<rect x="2753.89" y="18.2672" width="25.4947" height="35.1416" rx="4" fill="#EBE6E2"/>
<rect x="1553.08" y="18.2672" width="25.4947" height="35.1416" rx="4" fill="#EBE6E2"/>
<rect x="2207.09" y="18.2672" width="25.4947" height="35.1416" rx="4" fill="#EBE6E2"/>
<rect x="1880.09" y="18.2672" width="25.4947" height="35.1416" rx="4" fill="#EBE6E2"/>
<rect x="2534.1" y="18.2672" width="25.4947" height="35.1416" rx="4" fill="#EBE6E2"/>
<rect x="1716.58" y="18.2672" width="25.4947" height="35.1416" rx="4" fill="#EBE6E2"/>
<rect x="2370.6" y="18.2672" width="25.4947" height="35.1416" rx="4" fill="#EBE6E2"/>
<rect x="2043.59" y="18.2672" width="25.4947" height="35.1416" rx="4" fill="#EBE6E2"/>
<rect x="2697.6" y="18.2672" width="25.4947" height="35.1416" rx="4" fill="#EBE6E2"/>
<rect x="2810.18" y="18.2672" width="25.4947" height="35.1416" rx="4" fill="#EBE6E2"/>
<rect x="0.506348" y="0.106567" width="1440" height="71.4629" fill="black"/>
<rect x="19.1455" y="18.2672" width="25.4947" height="35.1416" rx="4" fill="#EBE6E2"/>
<rect x="673.157" y="18.2672" width="25.4947" height="35.1416" rx="4" fill="#EBE6E2"/>
<rect x="346.151" y="18.2672" width="25.4947" height="35.1416" rx="4" fill="#EBE6E2"/>
<rect x="1000.16" y="18.2672" width="25.4947" height="35.1416" rx="4" fill="#EBE6E2"/>
<rect x="182.648" y="18.2672" width="25.4947" height="35.1416" rx="4" fill="#EBE6E2"/>
<rect x="836.66" y="18.2672" width="25.4947" height="35.1416" rx="4" fill="#EBE6E2"/>
<rect x="509.654" y="18.2672" width="25.4947" height="35.1416" rx="4" fill="#EBE6E2"/>
<rect x="1163.67" y="18.2672" width="25.4947" height="35.1416" rx="4" fill="#EBE6E2"/>
<rect x="75.4326" y="18.2672" width="25.4947" height="35.1416" rx="4" fill="#EBE6E2"/>
<rect x="729.445" y="18.2672" width="25.4947" height="35.1416" rx="4" fill="#EBE6E2"/>
<rect x="402.439" y="18.2672" width="25.4947" height="35.1416" rx="4" fill="#EBE6E2"/>
<rect x="1056.45" y="18.2672" width="25.4947" height="35.1416" rx="4" fill="#EBE6E2"/>
<rect x="238.936" y="18.2672" width="25.4947" height="35.1416" rx="4" fill="#EBE6E2"/>
<rect x="892.948" y="18.2672" width="25.4947" height="35.1416" rx="4" fill="#EBE6E2"/>
<rect x="565.942" y="18.2672" width="25.4947" height="35.1416" rx="4" fill="#EBE6E2"/>
<rect x="1219.95" y="18.2672" width="25.4947" height="35.1416" rx="4" fill="#EBE6E2"/>
<rect x="1332.53" y="18.2672" width="25.4947" height="35.1416" rx="4" fill="#EBE6E2"/>
<rect x="131.721" y="18.2672" width="25.4947" height="35.1416" rx="4" fill="#EBE6E2"/>
<rect x="785.732" y="18.2672" width="25.4947" height="35.1416" rx="4" fill="#EBE6E2"/>
<rect x="458.726" y="18.2672" width="25.4947" height="35.1416" rx="4" fill="#EBE6E2"/>
<rect x="1112.74" y="18.2672" width="25.4947" height="35.1416" rx="4" fill="#EBE6E2"/>
<rect x="295.224" y="18.2672" width="25.4947" height="35.1416" rx="4" fill="#EBE6E2"/>
<rect x="949.235" y="18.2672" width="25.4947" height="35.1416" rx="4" fill="#EBE6E2"/>
<rect x="622.229" y="18.2672" width="25.4947" height="35.1416" rx="4" fill="#EBE6E2"/>
<rect x="1276.24" y="18.2672" width="25.4947" height="35.1416" rx="4" fill="#EBE6E2"/>
<rect x="1388.82" y="18.2672" width="25.4947" height="35.1416" rx="4" fill="#EBE6E2"/>
</svg>
