<svg width="1310" height="608" viewBox="0 0 1310 608" fill="none" xmlns="http://www.w3.org/2000/svg">
<path d="M309.137 588.526C304.233 586.689 302.862 584.89 304.026 581.822C304.566 580.401 305.603 579.238 306.33 579.238C307.057 579.238 310.241 580.913 313.404 582.961C316.568 585.008 320.436 587.148 322.001 587.717L324.845 588.751L321.346 588.827C319.421 588.869 316.597 589.085 315.071 589.307C313.544 589.528 310.874 589.177 309.137 588.526V588.526ZM298.007 579.095C297.084 578.577 295.544 578.403 294.586 578.708C293.379 579.091 292.448 578.52 291.555 576.849C290.846 575.523 289.575 574.2 288.731 573.909C286.794 573.242 282.734 566.656 280.474 560.516C279.333 557.414 277.798 555.271 275.976 554.233C272.743 552.392 272.512 551.557 275.014 550.761C277.877 549.852 278.41 544.798 276 541.409C274.85 539.792 274.244 537.893 274.591 536.989C275 535.922 273.871 534.05 271.138 531.262C267.689 527.743 267.051 526.463 266.897 522.755C266.797 520.355 266.213 517.785 265.599 517.045C264.826 516.112 264.669 512.765 265.086 506.148C265.538 498.977 265.275 494.551 264.029 488.382C262.178 479.22 261.232 462.151 261.713 446.578C261.816 443.255 261.386 438.694 260.758 436.441C259.228 430.955 252.188 424.031 243.488 419.453C237.265 416.179 236.39 415.34 233.958 410.311C232.485 407.266 229.669 402.714 227.701 400.197C225.734 397.679 223.594 393.982 222.947 391.981C220.893 385.63 217.272 379.248 214.804 377.629C213.491 376.767 211.993 374.526 211.475 372.649C210.638 369.613 210.858 368.765 213.48 364.95C216.322 360.813 216.356 360.645 214.435 360.142C209.715 358.906 211.7 352.589 220.172 341.885C225.803 334.77 227.453 329.35 225.893 323.089C225.299 320.703 224.766 318.207 224.71 317.542C224.654 316.878 224.231 316.334 223.77 316.334C223.309 316.334 223.397 315.462 223.967 314.397C224.844 312.755 224.623 312.286 222.514 311.324C219.44 309.922 214.799 311.308 214.781 313.634C214.76 316.422 213.535 316.628 209.496 314.52C207.333 313.391 205.086 312.468 204.503 312.468C203.92 312.468 201.653 310.923 199.465 309.036C197.277 307.149 194.943 305.174 194.28 304.649C193.616 304.123 193.073 302.69 193.073 301.464C193.073 300.238 192.221 298.463 191.179 297.519C190.137 296.575 188.787 294.293 188.178 292.447C187.379 290.022 186.78 289.385 186.018 290.148C184.428 291.74 182.073 291.438 176.358 288.907C173.37 287.584 170.257 285.325 169.014 283.576C167.827 281.907 165.559 279.871 163.975 279.05C161.36 277.696 160.706 277.707 156.896 279.163L152.699 280.768L139.822 274.521C131.902 270.678 125.754 267.012 123.85 264.996C120.898 261.87 120.802 261.53 121.785 257.655C122.685 254.105 122.532 253.007 120.574 248.959C119.342 246.41 116.65 242.496 114.592 240.26C112.534 238.024 111.084 235.816 111.37 235.354C111.655 234.891 110.206 231.771 108.148 228.421C105.81 224.615 104.16 220.538 103.751 217.555C103.225 213.73 102.613 212.56 100.675 211.676C98.621 210.739 98.0466 210.858 96.8704 212.467C95.2138 214.733 95.6847 217.125 99.3476 225.05C100.836 228.271 102.374 233.045 102.766 235.66C103.158 238.274 104.314 242.055 105.336 244.061C107.757 248.812 106.194 248.728 102.376 243.902C100.125 241.056 99.5165 239.494 99.9639 237.709C100.442 235.803 99.9713 234.885 97.631 233.152C94.0815 230.525 93.3303 228.83 94.6341 226.391C95.3944 224.968 95.0458 223.408 93.1149 219.593C91.154 215.719 90.7439 213.842 91.2294 210.965C92.023 206.262 89.9155 202.005 85.9866 200.375C83.7182 199.434 82.9362 198.382 82.4741 195.648C82.1471 193.714 81.5208 190.721 81.0823 188.997C80.6262 187.204 80.6594 185.632 81.1599 185.322C81.641 185.024 81.3262 183.698 80.4604 182.375C79.1851 180.427 79.0978 179.504 80.0007 177.52C80.6137 176.173 80.8451 174.633 80.5148 174.099C80.1846 173.564 81.0075 171.965 82.3435 170.546C83.6795 169.128 85.4581 166.298 86.2961 164.259C87.134 162.219 89.7162 158.438 92.0342 155.857C94.3523 153.275 97.2911 148.753 98.5648 145.808C100.333 141.72 101.369 140.449 102.945 140.436C104.081 140.428 104.95 140.964 104.876 141.628C104.569 144.397 106.756 143.544 109.212 139.937C110.66 137.81 111.441 135.925 110.948 135.748C110.455 135.571 110.052 134.771 110.052 133.97C110.052 133.17 108.053 130.57 105.611 128.193C101.559 124.251 101.299 123.728 102.646 122.238C103.738 121.03 103.866 120.144 103.138 118.842C101.859 116.554 103.877 111.429 106.066 111.408C106.97 111.4 107.228 111.092 106.673 110.683C105.428 109.767 104.864 107.687 105.039 104.657C105.318 99.8173 104.26 97.7928 100.666 96.2894C98.7279 95.4784 95.7701 93.7673 94.0933 92.4868C92.4166 91.2064 90.2893 90.1587 89.366 90.1587C88.4427 90.1587 84.2457 89.2789 80.0394 88.2036C73.2767 86.4748 72.0848 86.4065 69.7422 87.6137C64.8874 90.1154 59.744 91.135 57.6471 90.0114C56.0743 89.1686 54.3578 89.6891 48.3726 92.8237C44.3331 94.9393 39.5076 96.9986 37.6493 97.3998C35.791 97.8011 32.2346 99.1565 29.7462 100.412C22.6879 103.973 12.5769 107.563 9.78011 107.5C7.97512 107.46 9.19545 106.667 13.9979 104.761C22.1596 101.52 30.5461 97.3 31.3218 96.0432C32.2773 94.4954 30.2033 93.9401 27.712 95.0766C25.8778 95.9133 24.7474 95.8351 22.6308 94.7247L19.9085 93.2966L22.8697 91.7634C26.2172 90.0302 27.2702 88.0694 26.5011 85.0012C25.7562 82.0298 29.8632 79.8464 38.7106 78.5105C43.4645 77.7926 47.0784 76.5977 49.5115 74.9394C53.802 72.015 53.0649 69.8048 48.4389 71.7233C46.249 72.6315 44.6539 72.6415 41.4107 71.7671C37.4694 70.7045 37.329 70.5528 39.0919 69.2621C42.0417 67.1025 48.1425 65.8035 52.1509 66.4816C54.6874 66.9106 56.765 66.6103 58.8974 65.5062L61.9786 63.9109L59.9503 61.7492C58.8347 60.5602 57.922 59.3318 57.922 59.0194C57.922 58.1226 63.7335 56.3291 66.6393 56.3291C68.0898 56.3291 72.0659 55.2778 75.4752 53.993C78.8846 52.7081 86.7504 50.954 92.9548 50.0949C103.018 48.7016 105.149 48.6846 112.694 49.9373C117.347 50.7097 123.76 51.6309 126.946 51.9844C130.131 52.338 135.77 53.4601 139.476 54.4782C148.083 56.8425 153.689 56.8137 163.305 54.3555C167.551 53.2701 171.842 52.6418 172.842 52.9592C173.841 53.2767 175.539 53.0643 176.617 52.4871C178.101 51.6918 179.252 51.788 181.369 52.8844C183.283 53.875 185.644 54.1577 188.86 53.7811C192.252 53.3838 195.222 53.7952 199.559 55.2634C202.86 56.3811 206.527 57.2957 207.708 57.2957C209.798 57.2957 209.805 57.3312 207.979 58.6765C206.189 59.9957 206.184 60.0877 207.865 60.7399C208.833 61.1154 212.192 61.1539 215.33 60.8255C220.998 60.2324 221.047 60.2491 222.627 63.3089L224.218 66.3895L226.283 63.7962C227.47 62.3059 230.291 60.6177 232.914 59.8271C236.879 58.6323 238.083 58.6363 242.065 59.8574C244.877 60.7194 248.241 61.0334 250.761 60.669C253.97 60.205 255.46 60.494 257.554 61.9866C260.197 63.871 260.27 63.8719 262.614 62.0529C263.922 61.0377 266.614 59.7548 268.596 59.2019C273.341 57.8782 274.951 55.0576 272.101 53.0592C270.086 51.646 270.174 51.5382 275.471 48.9371C279.422 46.9972 281.201 46.5566 281.971 47.3276C282.741 48.0986 282.733 48.9466 281.942 50.426C280.594 52.9475 282.272 56.7588 284.374 55.9511C285.13 55.6608 286.383 55.6673 287.16 55.9656C288.379 56.4342 288.36 56.8315 287.016 58.8846C283.305 64.5564 291.626 62.9494 297.259 56.9064C299.55 54.4496 303.098 53.7047 306.424 54.9827C308.572 55.808 308.371 56.4836 304.814 60.3889C300.575 65.0428 298.406 65.9947 292.038 65.9947C288.961 65.9947 285.328 66.6622 283.636 67.5386C281.292 68.7518 280.15 68.8527 278.302 68.0096C274.856 66.4378 273.657 67.7461 276.128 70.3803L278.238 72.6287L274.029 73.8248C271.714 74.4827 267.865 75.0845 265.475 75.1623C262.01 75.275 261.13 75.6516 261.125 77.023C261.12 78.1964 259.434 79.4314 255.815 80.9127C244.088 85.7123 234.14 94.3662 237.741 96.635C238.416 97.0601 239.488 98.592 240.122 100.039C240.853 101.706 242.261 102.868 243.963 103.209C245.441 103.506 249.257 105.033 252.443 106.604C255.629 108.175 259.538 109.744 261.131 110.092C265.517 111.049 265.555 111.149 263.513 116.337C261.765 120.776 261.73 121.409 263.084 124.031C263.896 125.602 265.091 126.873 265.741 126.854C268.905 126.762 271.871 123.839 273.714 118.998C275.47 114.383 276.271 113.522 281.312 110.826C288.753 106.847 291.847 102.928 291.022 98.5272C290.485 95.6607 290.764 94.9881 293.215 93.2411C294.759 92.1401 296.804 89.5051 297.758 87.3855C299.892 82.6476 303.321 81.0053 309.103 81.9517C314.23 82.791 320.294 86.0506 321.027 88.3612C321.327 89.3097 321.078 91.0131 320.472 92.1465C319.554 93.8633 319.728 94.5881 321.51 96.4877L323.65 98.7681L327.144 96.9547C329.065 95.9574 332.145 94.0118 333.988 92.6312L337.339 90.121L338.126 92.2515C338.559 93.4233 338.681 94.9856 338.399 95.7234C338.116 96.4611 338.336 97.9088 338.887 98.9406C339.508 100.101 339.556 101.414 339.014 102.384C338.403 103.478 338.811 105.139 340.365 107.877C342.591 111.801 342.591 111.804 340.636 113.175C338.064 114.979 339.714 116.892 342.537 115.379C345.341 113.877 348.551 114.072 350.53 115.865C353.456 118.517 351.023 121.688 343.256 125.347C334.809 129.326 331.044 130.114 320.018 130.212C311.877 130.284 310.799 130.544 302.883 134.343C298.237 136.573 294.436 138.78 294.436 139.247C294.436 141.242 295.9 141.068 301.517 138.408C304.826 136.84 309.091 135.588 311.123 135.588C314.593 135.587 314.719 135.695 313.636 137.722C313.008 138.896 311.654 140.538 310.627 141.37C309.013 142.679 308.918 143.232 309.929 145.453C311.445 148.784 315.403 150.387 320.138 149.587L323.88 148.954L321.003 150.942C319.42 152.035 316.814 153.213 315.211 153.56C313.607 153.906 310.312 155.19 307.888 156.413C305.428 157.654 302.956 158.311 302.292 157.9C300.764 156.955 302.377 155.536 307.34 153.46C311.755 151.613 311.049 149.651 306.292 150.545C304.439 150.893 298.43 153.159 292.938 155.581C284.367 159.361 282.872 160.359 282.373 162.634C281.76 165.43 279.667 166.752 272.31 168.993C269.963 169.708 266.922 171.436 265.552 172.833C264.183 174.229 261.56 176.32 259.724 177.48C257.888 178.639 256.131 180.67 255.818 181.993C255.303 184.173 255.184 184.225 254.539 182.545C253.331 179.398 251.511 182.475 251.406 187.841C251.299 193.34 248.515 197.09 242.41 199.962C236.151 202.907 227.244 209.865 225.439 213.22C223.846 216.182 223.779 217.336 224.761 224.95C225.677 232.053 225.622 233.835 224.417 236.168C223.517 237.911 222.467 238.744 221.593 238.408C219.522 237.612 216.988 229.078 217.698 225.288C218.192 222.656 217.865 221.659 215.906 219.816C214.327 218.33 212.869 217.766 211.63 218.16C210.596 218.488 207.672 217.865 205.129 216.774C201.233 215.102 199.99 214.961 197.209 215.88C195.323 216.504 193.449 217.981 192.836 219.33C191.923 221.335 191.319 221.593 188.798 221.05C187.167 220.699 184.66 219.812 183.226 219.078C179.695 217.272 177.717 217.398 173.751 219.681C171.901 220.746 168.125 222.785 165.361 224.211C162.185 225.851 160.002 227.716 159.43 229.282C158.932 230.645 157.152 235.957 155.475 241.086L152.424 250.413L153.982 256.433C156.845 267.493 160.828 270.804 169.126 269.023C175.382 267.679 179.139 264.957 180.52 260.768C181.397 258.107 182.343 257.227 185.175 256.44C189.437 255.255 191.217 255.211 192.854 256.251C194.205 257.109 193.73 258.522 187.681 271.633C183.531 280.63 183.83 281.434 190.94 280.407C197.418 279.472 203.339 280.19 204.031 281.995C204.301 282.698 203.862 287.446 203.056 292.545C201.615 301.666 201.625 301.87 203.7 305.232C204.86 307.111 207.035 309.283 208.533 310.059C210.924 311.297 211.675 311.294 214.684 310.035C219.465 308.035 222.061 308.246 225.382 310.907C228.038 313.034 228.413 313.094 230.5 311.725C231.738 310.912 233.428 308.898 234.255 307.25C236.118 303.532 239.259 300.919 241.897 300.89C242.999 300.879 244.921 299.782 246.168 298.453C248.701 295.754 253.16 294.874 250.98 297.504C249.151 299.71 248.105 306.808 249.284 309.013C250.266 310.85 250.345 310.839 252.131 308.63C253.403 307.058 253.659 306.049 252.964 305.354C251.306 303.693 251.805 302.314 254.891 300.03C258.094 297.659 260.572 297.902 263.336 300.859C265.363 303.028 276.184 305.959 279.285 305.179C284.008 303.992 296.77 311.761 301.564 318.742C303.847 322.066 311.141 325.411 314.348 324.605C320.945 322.948 329.99 329.566 332.105 337.598C332.735 339.99 333.685 342.219 334.216 342.55C335.624 343.428 333.515 346.9 328.903 351.292C325.956 354.099 325.252 355.307 326.081 356.137C326.91 356.967 328.273 356.24 331.545 353.22C336.304 348.828 337.892 348.382 340.276 350.769C341.726 352.221 341.681 352.517 339.694 354.635C338.51 355.897 336.857 356.957 336.02 356.991C335.138 357.026 335.495 357.45 336.868 357.999C338.754 358.753 339.737 358.541 341.695 356.957C346.791 352.834 347.99 352.636 352.518 355.169C355.461 356.815 356.64 358.069 356.491 359.394C356.079 363.08 356.947 363.896 359.499 362.222C361.527 360.891 362.919 360.828 369.706 361.758C376.925 362.748 377.871 363.143 381.334 366.61C383.906 369.185 386.798 370.878 390.432 371.936C395.31 373.356 395.84 373.789 396.725 377.079C398.008 381.849 396.505 387.142 392.44 392.17C390.703 394.318 388.575 397.471 387.71 399.177C386.845 400.883 385.006 403.412 383.622 404.797C381.281 407.141 381.151 407.727 381.734 413.294C382.875 424.168 377.562 444.456 372.438 448.795C370.77 450.207 369.342 450.539 366.696 450.129C364.522 449.792 362.912 450.009 362.487 450.698C362.109 451.311 360.001 452.604 357.803 453.572C355.605 454.539 352.332 456.592 350.531 458.132C347.412 460.799 347.308 461.094 348.357 464.278C349.567 467.948 348.752 472.294 346.159 476.001C345.321 477.199 344.635 479.238 344.635 480.531C344.635 481.825 343.628 484.229 342.397 485.874C341.166 487.519 338.791 491.285 337.12 494.242C333.008 501.518 330.535 502.778 324.573 500.639C319.399 498.782 316.64 498.56 316.64 500.001C316.64 500.544 317.671 501.459 318.932 502.034C320.192 502.609 322.157 504.95 323.297 507.237C324.996 510.641 325.175 511.824 324.29 513.769C322.919 516.782 317.676 519.312 312.802 519.312C308.486 519.312 307.415 520.369 308.906 523.158C309.826 524.88 309.207 527.65 307.428 529.773C307.283 529.945 305.772 529.365 304.069 528.483C300.003 526.378 298.564 527.719 300.618 531.697C301.454 533.316 303.043 534.927 304.15 535.279C306.052 535.883 306.072 536.017 304.526 537.728C303.626 538.724 303.158 540.236 303.486 541.093C303.839 542.013 303.053 544 301.56 545.959C299.134 549.143 299.1 549.364 300.655 551.741C301.544 553.1 302.931 554.465 303.737 554.775C306.645 555.892 307.127 559.708 304.91 564.059C302.689 568.418 302.348 572.787 304.067 574.861C305.63 576.747 300.372 580.419 298.007 579.095H298.007ZM226.861 160.468C229.44 155.071 234.24 151.052 238.105 151.052C240.887 151.052 240.92 151.504 238.373 154.747L236.37 157.296L238.425 158.962C240.081 160.305 240.935 160.421 242.823 159.56C244.111 158.972 245.432 157.65 245.758 156.623C246.201 155.225 246.922 154.898 248.621 155.325C250.195 155.721 251.18 155.382 251.827 154.224C253.789 150.714 248.797 146.226 245.122 148.195C242.493 149.604 239.058 146.801 239.791 143.845C240.063 142.749 239.504 140.843 238.536 139.563C236.54 136.926 233.505 136.649 226.861 138.495C224.471 139.159 221.747 139.673 220.806 139.637C219.866 139.6 219.348 139.979 219.657 140.478C219.965 140.978 219.866 141.396 219.436 141.408C219.007 141.42 217.574 142.261 216.253 143.277L213.851 145.125L216.549 146.152C218.657 146.955 219.901 146.84 222.243 145.628C224.996 144.202 225.506 144.203 228.51 145.638C230.32 146.502 232.791 146.945 234.042 146.631C235.286 146.318 236.57 146.494 236.896 147.022C237.229 147.561 235.869 148.255 233.79 148.607C228.14 149.562 225.205 151.918 221.107 158.785C217.685 164.52 217.488 165.212 218.853 166.728C220.191 168.216 220.561 168.239 222.397 166.953C223.525 166.164 225.533 163.245 226.861 160.468V160.468ZM244.4 166.434C247.836 164.679 248.167 164.238 246.956 163.025C245.745 161.813 244.979 161.892 241.04 163.637C236.414 165.686 234.946 168.45 238.484 168.45C239.567 168.45 242.229 167.543 244.4 166.434ZM261.517 159.13C263.528 157.72 263.602 157.444 262.184 156.649C260.096 155.479 253.891 157.495 253.891 159.343C253.891 161.247 258.69 161.113 261.517 159.13ZM334.016 576.532C334.016 576.107 334.538 575.237 335.175 574.599C335.812 573.961 335.968 573.439 335.522 573.439C335.077 573.439 334.191 574.152 333.554 575.024C332.64 576.276 332.009 576.383 330.552 575.537C329.51 574.931 329.257 574.452 329.97 574.435C330.665 574.419 330.966 573.971 330.637 573.439C330.007 572.418 331.664 572.14 336.43 572.466C340.683 572.757 341.111 573.379 338.482 575.449C336.033 577.378 334.016 577.867 334.016 576.532ZM1140.22 552.274C1137.46 550.522 1143.21 546.653 1157.47 540.672C1161.45 539.001 1167.52 535.508 1170.96 532.908C1176.8 528.488 1177.28 528.297 1178.44 529.951C1180.19 532.462 1179.16 534.28 1174.87 536.217C1172.82 537.143 1170.24 538.938 1169.14 540.205C1168.04 541.472 1166.27 542.509 1165.2 542.509C1164.14 542.509 1161.64 543.974 1159.65 545.764C1152.83 551.893 1144.19 554.788 1140.22 552.274ZM1072.66 539.717C1071.66 539.081 1071.6 538.426 1072.42 536.896C1073.01 535.8 1073.49 533.541 1073.49 531.875C1073.49 529.152 1073.7 528.924 1075.66 529.612C1076.85 530.033 1079.35 530.434 1081.21 530.503C1083.07 530.573 1084.92 530.693 1085.33 530.77C1086.93 531.071 1082.66 535.945 1078.81 538.199C1074.24 540.884 1074.43 540.838 1072.66 539.717ZM1184.21 531.265C1183.88 530.929 1184.67 529.811 1185.98 528.781C1187.95 527.229 1188.18 526.574 1187.32 524.962C1186.07 522.631 1187.92 520.129 1192.21 518.351C1195.53 516.973 1196.37 514.178 1195.48 507.432C1194.87 502.792 1194.94 502.502 1196.43 503.739C1197.61 504.71 1197.9 505.933 1197.48 508.165C1197.02 510.61 1197.43 511.881 1199.47 514.305C1201.67 516.924 1202.32 517.209 1204.04 516.291C1205.74 515.377 1205.94 515.46 1205.4 516.862C1205.06 517.765 1204.78 518.674 1204.78 518.883C1204.78 519.091 1203.36 519.986 1201.64 520.87C1199.91 521.755 1196.55 524.095 1194.16 526.07C1190.27 529.282 1186.27 531.877 1185.21 531.877C1185 531.877 1184.55 531.602 1184.21 531.265ZM1082.13 518.782C1080.1 516.615 1079.72 516.532 1077.77 517.813C1075.28 519.446 1070.6 518.492 1066.85 515.586C1064.86 514.037 1064.72 513.537 1065.75 511.608C1066.63 509.962 1066.66 508.808 1065.86 507.062C1065.28 505.775 1064.8 503.873 1064.8 502.835C1064.8 500.493 1063.28 500.381 1062.02 502.63C1061.5 503.556 1060.8 504.037 1060.47 503.698C1060.13 503.36 1061.25 501.493 1062.95 499.549C1067.15 494.765 1065.51 493.467 1059.97 497.182C1057.58 498.783 1055.47 500.532 1055.28 501.069C1055.09 501.606 1053.95 499.949 1052.73 497.388C1051.42 494.611 1049.14 491.82 1047.1 490.473C1044.04 488.45 1043 488.283 1037.1 488.87C1028.46 489.731 1020.12 491.865 1014.67 494.611C1012.19 495.86 1007.35 497.138 1003.61 497.53C999.961 497.914 994.152 499.291 990.705 500.59C985.433 502.577 983.932 502.785 981.261 501.903C977.678 500.719 976.19 498.278 978.508 497.388C979.347 497.065 980.87 494.847 981.892 492.459C983.529 488.636 983.62 487.445 982.649 482.505C981.846 478.418 981.824 474.548 982.567 468.256C983.128 463.505 983.343 458.683 983.044 457.539C982.746 456.396 983.212 453.597 984.081 451.32C985.613 447.304 985.984 447.042 996.34 442.65C1002.21 440.159 1008.23 438.12 1009.7 438.12C1013.69 438.12 1018.63 434.319 1021.36 429.154C1023.04 425.962 1024.21 424.747 1025.22 425.138C1028.04 426.229 1028.59 426.015 1028.38 423.922C1028.24 422.576 1028.81 421.596 1029.96 421.231C1030.96 420.915 1032.79 419.155 1034.05 417.32C1035.33 415.441 1037.96 413.324 1040.07 412.475C1043.6 411.059 1043.95 411.08 1045.86 412.824C1049.4 416.043 1051.91 416.983 1053.1 415.539C1053.69 414.836 1053.89 413.985 1053.55 413.648C1052.44 412.541 1057.5 406.189 1059.97 405.579C1061.3 405.251 1064.02 404.161 1066.03 403.156C1069.15 401.589 1070.25 401.485 1073.75 402.426C1081.3 404.455 1081.55 404.786 1078.74 409.034C1075.13 414.496 1076.09 416.632 1084.94 422.872C1089.03 425.754 1092.89 427.939 1093.52 427.729C1094.15 427.519 1096.14 425.313 1097.94 422.827C1100.39 419.438 1101.34 416.974 1101.74 412.99C1102.3 407.33 1105 399.458 1106.39 399.458C1106.84 399.458 1107.9 401.786 1108.72 404.631C1109.55 407.476 1111.28 410.796 1112.57 412.01C1115.58 414.844 1117.33 422.772 1115.98 427.455C1115.08 430.559 1115.26 431.057 1118.33 434.221C1120.15 436.1 1123.04 440.682 1124.74 444.403C1126.44 448.124 1129.51 453.39 1131.56 456.104L1135.29 461.038L1134.23 468.662C1133.46 474.193 1132.27 477.88 1129.9 482.092C1126.26 488.545 1120.82 494.701 1117.95 495.613C1116.92 495.94 1114.53 498.362 1112.64 500.994C1110.75 503.626 1108.78 505.78 1108.26 505.78C1107.74 505.78 1105.54 508.039 1103.36 510.799C1099.72 515.404 1099.05 515.825 1095.26 515.897C1092.36 515.951 1090.13 516.741 1087.74 518.563L1084.35 521.152L1082.13 518.782H1082.13ZM611.4 498.46C609.356 496.413 609.014 495.366 609.471 492.547C609.901 489.894 609.491 488.333 607.655 485.627C606.351 483.706 605.284 481.661 605.284 481.083C605.284 480.505 603.577 477.741 601.49 474.941C598.266 470.613 597.603 468.884 597.071 463.409C596.133 453.749 593.052 443.292 588.911 435.713C586.875 431.987 584.919 427.149 584.565 424.962C583.811 420.309 585.698 413.383 590.007 404.992L592.873 399.41L591.263 394.555C590.362 391.839 589.921 388.625 590.263 387.26C590.664 385.663 590.233 383.76 589.017 381.749C587.995 380.059 586.478 376.285 585.645 373.361C584.532 369.456 582.982 366.916 579.801 363.792C573.683 357.782 572.887 355.416 574.786 348.876C578.652 335.562 574.476 327.797 564.274 329.329C560.302 329.926 560.15 329.851 559.589 327.042C559.158 324.886 557.991 323.618 555.061 322.121C551.254 320.176 549.624 320.169 544.948 322.076C543.887 322.509 539.542 324.009 535.295 325.41C528.908 327.517 526.99 327.789 524.21 326.982C521.576 326.217 519.358 326.415 513.968 327.895C508.399 329.425 506.38 329.589 503.371 328.758C497.092 327.022 486.305 317.286 484.77 311.971C483.583 307.858 476.198 298.272 473.685 297.581C472.088 297.142 471.891 296.802 472.869 296.17C473.853 295.535 473.681 295.213 472.145 294.811C469.705 294.172 469.463 292.176 471.822 292.155C473.266 292.142 473.301 292.004 472.063 291.203C471.151 290.613 471.05 290.261 471.789 290.252C472.556 290.242 472.264 289.05 470.949 286.818C469.097 283.675 469.059 283.26 470.473 281.695C474.792 276.917 475.738 266.629 472.455 260.147C470.888 257.052 471.896 252.778 475.241 248.334C476.5 246.661 478.959 242.59 480.704 239.287C483.758 233.509 490.565 225.477 492.408 225.477C494.446 225.477 501.024 218.397 501.024 216.202C501.024 211.247 503.983 206.307 508.807 203.208C511.399 201.543 514.436 198.695 515.556 196.881C517.848 193.168 518.172 193.047 520.841 194.909C521.888 195.64 524.491 196.531 526.624 196.89C529.878 197.436 531.433 197.043 536.278 194.449C544.613 189.985 549.764 188.871 559.302 189.466C565.592 189.859 568.424 189.608 571.473 188.387C575.963 186.588 579.845 187.652 578.794 190.394C578.479 191.218 578.672 192.437 579.223 193.102C579.917 193.94 579.912 195.139 579.205 196.999C578.318 199.335 578.515 200.031 580.713 202.328C582.104 203.781 584.593 205.241 586.246 205.572C594.004 207.125 596.21 208.131 597.812 210.847C598.986 212.836 600.524 213.857 603.068 214.335C605.047 214.707 607.919 215.66 609.452 216.454C612.054 217.801 612.392 217.752 614.562 215.711C616.021 214.338 616.683 212.885 616.341 211.805C616.041 210.859 616.27 209.199 616.849 208.116C618.342 205.321 622.583 205.596 629.204 208.915C636.418 212.531 650.098 215.11 654.947 213.77C657.28 213.125 659.523 213.116 661.565 213.745C668.235 215.797 671.651 214.191 672.562 208.572C672.864 206.706 673.381 205.179 673.71 205.179C674.334 205.179 674.66 202.374 674.75 196.239C674.78 194.245 675.25 192.614 675.796 192.614C676.446 192.614 676.414 191.914 675.703 190.584C674.516 188.363 672.109 188.414 666.347 190.781C663.614 191.904 662.854 191.856 660.406 190.408C657.231 188.531 653.974 188.249 653.034 189.771C652.336 190.903 647.4 190.109 644.723 188.435C642.799 187.233 641.002 183.653 641.002 181.025C641.002 180.017 640.025 178.503 638.83 177.66C636.981 176.356 636.874 175.987 638.106 175.179C638.903 174.657 640.541 174.463 641.747 174.747C643.285 175.109 644.699 174.503 646.484 172.715C648.164 171.032 650.208 170.104 652.497 169.982C654.405 169.881 657.168 169.005 658.637 168.035C661.827 165.93 669.07 166.515 674.689 169.331C682.266 173.129 688.996 172.906 691.704 168.767C693.113 166.613 693.121 166.161 691.784 164.118C690.969 162.873 687.055 160.004 683.086 157.743L675.871 153.633L677.222 151.015C677.966 149.575 678.331 148.154 678.034 147.856C677.736 147.558 677.85 146.742 678.286 146.042C678.723 145.342 679.165 144.208 679.269 143.521C679.49 142.057 677.934 142.461 670.256 145.861C665.8 147.834 665.137 148.439 666.126 149.632C666.774 150.413 668.228 151.071 669.357 151.095C670.942 151.128 670.567 151.584 667.716 153.09C664.255 154.918 663.868 154.942 661.618 153.466C659.693 152.203 659.442 151.616 660.354 150.516C661.259 149.423 661.124 149.003 659.694 148.465C658.705 148.093 657.43 147.167 656.861 146.407C654.096 142.717 645.323 152.425 642.771 161.998C641.574 166.491 641.614 166.725 643.868 168.428L646.208 170.194L641.916 171.081C639.555 171.568 636.373 171.625 634.845 171.207C632.026 170.436 628.452 171.598 628.452 173.287C628.452 173.783 627.795 173.936 626.992 173.628C626.189 173.319 624.914 173.58 624.159 174.208C622.987 175.181 623.12 175.979 625.061 179.634C627.164 183.594 627.229 184.136 625.917 186.769C624.274 190.068 622.745 189.822 620.423 185.887C618.805 183.143 618.815 183.08 620.957 182.776C623.66 182.392 623.834 180.669 621.212 180.25C615.231 179.292 612.041 176.136 612.041 171.177C612.041 167.307 608.458 163.04 604.113 161.737C601.855 161.059 599.4 159.637 598.658 158.576C597.916 157.515 595.743 155.992 593.83 155.192C591.917 154.392 589.776 152.914 589.073 151.908C588.062 150.464 587.398 150.29 585.919 151.083C584.889 151.635 584.046 152.709 584.046 153.469C584.046 155.979 596.35 167.332 602.365 170.372C608.742 173.595 609.738 174.746 605.307 173.771C601.357 172.903 600.281 173.772 601.632 176.741C602.581 178.827 602.426 179.461 600.517 181.298L598.299 183.432L598.804 180.553C599.605 175.982 593.586 169.417 588.595 169.417C586.765 169.417 579.736 162.59 577.895 159.024C575.927 155.215 573.738 154.479 570.636 156.584C565.964 159.756 562.46 160.829 558.795 160.209C553.927 159.385 550.864 161.085 551.64 164.18C552.045 165.796 551.819 166.517 550.909 166.517C550.185 166.517 548.331 167.604 546.788 168.932C545.245 170.261 543.651 171.348 543.245 171.349C542.051 171.35 538.681 177.457 538.677 179.626C538.673 181.701 534.898 185.789 531.255 187.663C530.096 188.26 527.396 188.748 525.256 188.748C522.312 188.748 521.105 189.234 520.298 190.745C519.24 192.724 519.208 192.719 516.734 190.242C514.413 187.918 513.076 187.336 508.392 186.611C505.931 186.23 505.515 180.652 507.356 172.705C508.143 169.308 508.529 165.501 508.215 164.245C507.3 160.596 510.163 158.444 514.954 159.181C526.015 160.882 532.485 160.976 534.002 159.458C536.086 157.371 537.026 150.49 535.754 146.632C534.925 144.115 533.784 143.086 530.38 141.785C525.374 139.87 525.268 138.019 530.162 137.969C532.027 137.951 534.717 137.171 536.141 136.238C537.564 135.304 539.137 134.794 539.638 135.103C541.003 135.948 546.17 132.965 547.886 130.343C548.716 129.076 550.349 127.795 551.515 127.497C552.682 127.199 555.809 124.93 558.464 122.454C562.227 118.944 564.202 117.843 567.429 117.458C571.427 116.98 575.448 113.688 573.56 112.437C572.387 111.66 571.407 106.98 572.061 105.275C572.37 104.467 573.737 103.076 575.098 102.183L577.572 100.56L576.937 104.537C576.385 107.989 576.526 108.477 578.001 108.23C578.937 108.074 580.685 107.404 581.888 106.743C583.719 105.736 584.168 105.785 584.651 107.044C585.478 109.203 583.178 111.741 581.59 110.422C580.713 109.693 580.157 109.719 579.667 110.513C579.161 111.331 578.766 111.287 578.185 110.346C577.75 109.64 577.172 109.284 576.901 109.556C576.63 109.827 577.402 111.296 578.616 112.821C580.662 115.39 581.052 115.512 583.969 114.494C586.467 113.622 587.667 113.682 589.794 114.783C592.195 116.026 593.005 115.967 597.62 114.211C601.663 112.673 603.257 112.476 605.046 113.292C606.693 114.043 607.912 114.028 609.442 113.236C613.784 110.99 614.987 109.296 614.448 106.187C613.649 101.578 615.112 100.068 618.966 101.525C621.589 102.516 622.356 102.477 623.541 101.29C624.796 100.033 624.688 99.5692 622.631 97.377C620.652 95.2679 620.514 94.7437 621.72 93.9287C622.503 93.4 625.435 93.2106 628.237 93.5078C633.364 94.0515 639.754 92.0461 638.64 90.2425C637.665 88.663 631.78 88.2066 626.794 89.3237C622.373 90.3145 621.212 90.2344 617.823 88.7042C612.559 86.3277 611.939 83.5472 615.55 78.5093C620.197 72.0246 621.046 69.9581 619.723 68.3611C617.763 65.9964 615.837 66.7673 611.359 71.7095C608.993 74.321 605.769 76.992 604.194 77.645C602.62 78.298 600.672 80.1091 599.866 81.6695C598.553 84.2109 598.555 84.7434 599.886 86.7762C600.702 88.0244 602.251 89.3254 603.327 89.6673C606.289 90.6084 605.703 92.3747 601.467 95.2765C600.164 96.169 598.427 98.6939 597.605 100.887C596.577 103.636 595.012 105.512 592.573 106.922C589.133 108.91 588.977 108.918 587.077 107.196C586.001 106.221 584.859 104.233 584.54 102.777C584.221 101.322 582.771 98.7059 581.318 96.9636L578.677 93.7957L575.328 95.8399C573.486 96.9642 571.11 97.876 570.048 97.8662C566.984 97.8379 563.438 94.5246 563.201 91.4693C563.083 89.9511 562.689 87.9643 562.325 87.0541C561.46 84.8892 565.783 80.829 570.275 79.5871C574.784 78.3407 583.928 71.9239 585.487 68.9131C586.18 67.5738 588.529 64.8788 590.706 62.9242C592.883 60.9695 594.665 58.9395 594.665 58.413C594.665 57.8864 596.728 56.7194 599.25 55.8196C601.772 54.9197 606.008 53.2871 608.662 52.1914C611.922 50.8463 615.997 50.1351 621.212 50.0016C630.324 49.7682 636.283 50.9775 641.2 54.0577C643.667 55.6033 645.614 56.1305 647.477 55.7575C650.81 55.09 668.577 60.6039 669.318 62.5354C670.062 64.4769 664.966 66.3094 660.582 65.6772C658.574 65.3876 654.421 64.6133 651.353 63.9564C647.223 63.0722 645.494 63.0443 644.69 63.8489C643.886 64.6536 644.288 65.2474 646.237 66.1367C647.685 66.7972 649.498 68.5536 650.266 70.0397C652.22 73.8236 658.479 76.9083 661.709 75.679C664.812 74.4978 664.79 74.1252 661.516 72.347C658.488 70.7022 659.886 70.3467 663.689 71.7943C666.725 72.9501 670.165 71.5122 669.364 69.422C668.989 68.443 670.044 67.7362 673.02 66.9726C679.389 65.3386 679.855 65.105 679.327 63.8119C677.329 58.9205 677.301 59.0611 680.208 59.3934C681.759 59.5708 682.893 60.2351 682.764 60.8915C682.636 61.5401 683.445 62.5599 684.56 63.1576C686.236 64.0556 687.558 63.7357 692.166 61.3175C698.922 57.7714 704.182 56.6153 706.144 58.2453C707.238 59.1542 709.051 59.1605 714.3 58.274C718.013 57.647 721.472 57.395 721.988 57.7139C722.503 58.0329 723.209 57.8327 723.557 57.2692C724.318 56.0367 722.214 53.2403 721.062 53.953C719.672 54.8133 715.106 53.2721 716.1 52.2777C717.1 51.2763 743.965 57.5443 745.573 59.1541C746.657 60.2393 750.088 58.7916 750.088 57.2491C750.088 56.7293 748.172 55.372 745.831 54.2329C738.57 50.701 738.104 45.0444 744.932 43.3285C748.895 42.3326 750.609 43.4814 756.09 50.8082C763.206 60.3204 763.025 59.8365 760.7 63.1057C758.978 65.5265 758.875 66.093 760.069 66.552C762.332 67.4216 767.176 64.3787 767.858 61.6592C768.657 58.4726 767.165 55.7569 763.604 53.9128C760.803 52.463 758.777 49.8065 758.777 47.5861C758.777 46.8292 759.827 46.6405 761.914 47.0222C765.044 47.5945 767.632 46.4582 774.719 41.4012C776.34 40.2447 779.079 39.4826 781.842 39.4199C787.446 39.2926 789.26 38.3507 787.647 36.4053C787.015 35.6423 786.698 34.8169 786.944 34.5709C788.177 33.3365 804.07 31.1121 807.73 31.6617C811.252 32.1905 812.342 31.9044 815.24 29.6916C817.104 28.2678 818.629 26.7196 818.629 26.2511C818.629 25.0696 810.193 25.1751 809.458 26.3658C808.447 28.0041 807.136 27.434 807.505 25.5164C807.817 23.8972 807 23.6337 799.968 23.0856C780.767 21.5887 779.207 21.2375 781.51 18.9312C783.535 16.9035 788.502 16.9428 792.66 19.0194C794.363 19.8703 797.185 20.5664 798.931 20.5664C800.676 20.5664 802.373 21.0014 802.701 21.533C803.029 22.0646 804.72 22.4995 806.458 22.4995C811.273 22.4995 820.582 24.5818 819.998 25.5281C819.713 25.9888 820.614 26.3658 821.999 26.3658C823.384 26.3658 825.908 27.1148 827.607 28.0303C829.892 29.2615 833.084 29.7044 839.867 29.7316C847.159 29.7608 849.582 30.1358 851.693 31.5612C853.153 32.5473 854.342 33.6302 854.334 33.9678C854.327 34.3054 852.098 35.8088 849.383 37.3087C842.825 40.9311 844.212 42.5098 852.144 40.4519C857.281 39.1189 858.462 39.1104 862.715 40.3752C866.205 41.4129 868.384 41.5461 870.751 40.8664C873.114 40.188 875.539 40.3336 879.654 41.4013C883.948 42.5153 886.174 42.6286 888.895 41.8718C895.105 40.1449 902.746 40.6327 907.178 43.039C909.381 44.2351 913.445 46.4483 916.207 47.9572C921.104 50.6318 921.317 50.6613 924.714 49.1367C927.557 47.8605 929.143 47.7537 933.337 48.5564C937.505 49.3542 939.022 49.257 941.369 48.0416C943.666 46.8526 944.035 46.2681 943.159 45.2107C941.464 43.1658 947.478 42.4056 954.867 43.7308C958.252 44.3377 962.541 44.9435 964.399 45.0771C966.258 45.2106 969.888 46.2709 972.468 47.4333C976.401 49.206 979.369 49.6076 990.878 49.9241C1001.8 50.2244 1005.28 50.6619 1007.91 52.0677C1010.58 53.4946 1013.63 53.8575 1023.77 53.9565C1033.1 54.0475 1037.28 54.4904 1040.04 55.681C1044.51 57.6028 1046.29 56.898 1043.86 54.1732C1042.11 52.2133 1042.13 52.2106 1048.87 52.8813C1060.17 54.0053 1073.72 56.4811 1078.31 58.2592C1080.7 59.185 1085.26 60.2608 1088.43 60.6499C1091.61 61.039 1096.24 62.3903 1098.73 63.6529C1102.51 65.5693 1103.74 65.781 1106.16 64.9344C1109.48 63.7768 1111.63 64.6104 1116.7 69.0154L1119.84 71.7524L1117.47 72.3485C1115.09 72.9466 1108.77 71.3799 1106.59 69.6519C1105.95 69.1438 1105.05 68.9595 1104.6 69.2424C1104.14 69.5253 1101.88 69.1069 1099.58 68.3126C1094.19 66.4524 1091.79 67.1512 1094.25 69.8683C1095.92 71.7241 1095.89 71.763 1092.69 71.5396C1086.7 71.1216 1088.35 72.8915 1097.14 76.3236C1101.92 78.1897 1106.03 79.915 1106.28 80.1575C1107.19 81.0356 1104.2 82.1241 1102.03 81.7081C1099.64 81.2514 1093.76 83.8158 1093.76 85.3132C1093.76 85.8104 1092.83 87.084 1091.69 88.1434C1089.8 89.9131 1089.4 89.9534 1086.87 88.6395C1084.49 87.41 1083.73 87.3972 1081.45 88.5485C1079.99 89.285 1077.49 90.201 1075.9 90.5842C1074.31 90.9673 1072.47 91.7302 1071.81 92.2795C1069.87 93.8939 1073.29 98.5929 1078.12 100.931C1080.75 102.205 1082.65 103.912 1083.22 105.502C1083.71 106.898 1084.76 109.191 1085.55 110.597C1086.84 112.889 1086.83 113.215 1085.45 113.746C1084.43 114.136 1084.13 114.916 1084.58 116.022C1084.95 116.948 1085.36 118.793 1085.5 120.122C1085.65 121.451 1086.07 123.26 1086.45 124.143C1086.94 125.291 1086.54 125.939 1085.01 126.422C1083.32 126.961 1082.18 126.312 1079.39 123.229C1077.47 121.101 1074.27 118.172 1072.27 116.719C1070.27 115.267 1066.69 111.489 1064.32 108.325C1060.13 102.743 1060.04 102.489 1061.43 99.7961C1062.22 98.2697 1062.88 96.0205 1062.9 94.798C1062.92 93.5755 1063.53 91.495 1064.26 90.1747C1065.66 87.653 1065.12 85.6396 1062.14 82.2158C1060.18 79.9678 1056.7 81.653 1057.58 84.4231C1058.39 86.9752 1055.9 87.8021 1053.05 85.9316C1051.81 85.1207 1048.96 84.1637 1046.72 83.805C1042.86 83.1891 1042.58 83.3076 1041.58 85.9309C1041 87.4588 1040.75 89.8743 1041.04 91.2986C1041.48 93.5177 1041.17 93.9718 1038.89 94.4732C1037.34 94.8144 1034.68 94.4108 1032.52 93.5048C1030.14 92.5098 1027.9 92.2089 1026.29 92.668C1024.9 93.0622 1020.22 93.4201 1015.88 93.4633C1009.01 93.5317 1007.69 93.832 1005.6 95.7961C1004.28 97.0359 1002.7 100.081 1002.08 102.562C1001.46 105.043 1000.33 108.042 999.565 109.225C998.242 111.27 998.37 111.477 1002.15 113.41C1006.26 115.507 1010.74 116.06 1014.13 114.888C1016.75 113.984 1024.73 120.218 1027.23 125.112C1028.25 127.116 1029.94 129.214 1030.98 129.772C1034.92 131.885 1035.72 145.748 1032.43 154.811C1030.14 161.086 1027.59 163.138 1023.84 161.71C1022.4 161.164 1021.09 160.718 1020.91 160.718C1020.73 160.718 1019.66 162.502 1018.52 164.683C1017.03 167.547 1016.74 168.99 1017.48 169.877C1018.88 171.574 1017.84 173.781 1015.03 175.064C1013.73 175.657 1012.67 176.562 1012.67 177.077C1012.67 177.592 1015.69 180.094 1019.38 182.638C1024.08 185.874 1026.59 188.359 1027.74 190.915C1028.64 192.924 1029.2 194.727 1028.99 194.922C1028.77 195.117 1026.8 196.183 1024.6 197.292L1020.61 199.307L1018.21 193.786C1015.52 187.607 1013.21 185.122 1009.15 184.027C1007.11 183.475 1006.39 182.694 1006.39 181.001C1006.39 179.45 1005.39 178.132 1003.26 176.884C1000.16 175.066 1000.1 175.068 996.805 177.109C993.504 179.151 993.466 179.153 992.452 177.256C991.89 176.204 991.43 174.678 991.43 173.864C991.43 173.05 990.618 171.95 989.626 171.418C988.151 170.628 987.22 171.105 984.509 174.042C982.687 176.017 980.352 178.113 979.32 178.7C977.72 179.611 977.635 179.997 978.738 181.328C979.449 182.185 981.904 183.935 984.193 185.216C987.834 187.254 988.531 187.37 989.759 186.14C990.926 184.972 991.876 184.929 995.399 185.887L999.635 187.038L997.274 188.618C992.895 191.548 991.515 193.087 990.889 195.731C990.377 197.902 990.683 198.555 992.629 199.443C993.928 200.035 995.902 202.399 997.017 204.696C998.131 206.993 1000.36 209.649 1001.96 210.599C1005.5 212.689 1006.52 214.909 1004.48 216.052C1002.58 217.118 1003.49 218.711 1006 218.711C1009 218.711 1009.02 220.507 1006.12 230.871C1002.6 243.423 999.419 247.611 991.107 250.655C987.833 251.854 983.852 252.908 982.259 252.996C978.556 253.201 975.685 254.771 973.18 257.959L971.192 260.49L970.264 258.048C969.054 254.862 966.28 254.061 962.298 255.748C958.649 257.294 956.243 259.759 955.273 262.946C954.405 265.798 957.479 270.815 962.57 274.852C966.749 278.166 971.438 286.482 972.539 292.534C973.497 297.797 971.8 301.252 967.248 303.307C965.174 304.243 963.233 305.779 962.935 306.719C962.219 308.977 957.933 311.788 957.147 310.515C956.82 309.985 956.807 308.746 957.119 307.762C957.431 306.779 957.415 305.268 957.085 304.406C956.609 303.165 956.082 303.053 954.557 303.87C952.97 304.72 952.357 304.505 951.075 302.644C947.925 298.07 938.793 290.72 936.262 290.72C935.37 290.72 935.027 291.794 935.179 294.103C935.301 295.964 934.923 299.591 934.338 302.164C933.384 306.357 933.482 307.125 935.279 309.558C936.381 311.052 937.558 313.367 937.893 314.703C938.233 316.06 941.025 319.159 944.218 321.723C949.539 325.997 950.1 326.84 952.34 333.939C953.663 338.133 954.746 341.977 954.746 342.481C954.746 344.12 952.729 343.456 948.521 340.43C944.17 337.302 941.391 332.352 939.074 323.604C938.068 319.806 936.964 318.178 933.834 315.872C929.995 313.044 929.878 312.797 930.188 308.118C930.364 305.46 930.799 301.693 931.155 299.746C931.656 297.005 931.241 295.042 929.318 291.047C927.953 288.209 926.337 283.851 925.729 281.362C924.37 275.801 922.451 274.87 919.059 278.125C917.656 279.47 916.237 280.571 915.906 280.571C914.37 280.571 912.258 277.297 912.765 275.699C913.685 272.798 908.029 262.684 904.719 261.312C902.908 260.561 901.253 258.739 900.145 256.279C898.22 252.005 896.06 250.369 893.903 251.552C893.12 251.981 889.987 252.843 886.94 253.469C881.354 254.616 879.35 256.31 880.115 259.237C880.396 260.315 879.419 261.356 877.075 262.476C875.175 263.383 873.128 265.207 872.526 266.53C871.924 267.853 870.599 269.2 869.581 269.524C868.563 269.847 866.992 271.326 866.09 272.811C865.189 274.295 862.504 277.008 860.123 278.84C856.866 281.346 855.849 282.749 856.011 284.512C856.957 294.819 855.505 303.443 851.96 308.564C848.503 313.559 848.26 313.698 845.335 312.364C843.725 311.629 842.734 310.195 842.323 308.005C841.987 306.209 840.042 301.151 838.002 296.764C825.659 270.219 823.834 265.154 824.885 260.361C825.596 257.121 823.891 252.234 822.244 252.787C821.583 253.009 821.031 253.806 821.017 254.557C820.935 258.969 815.985 259.647 812.118 255.775L809.556 253.21L811.76 252.393C814.24 251.475 814.013 248.997 811.49 249.451C810.593 249.613 808.542 248.634 806.93 247.277C805.319 245.919 803.629 244.809 803.174 244.809C802.72 244.809 802.071 243.934 801.732 242.865C800.842 240.058 795.721 237.616 793.155 238.775C790.845 239.817 769.891 239.6 766.383 238.496C765.12 238.099 762.783 236.28 761.19 234.455C758.312 231.157 758.267 231.144 753.95 232.309C749.859 233.413 749.264 233.309 743.754 230.524C738.992 228.117 737.566 226.819 736.096 223.555C734.22 219.391 730.055 216.376 727.523 217.349C726.725 217.656 725.793 219.178 725.452 220.732C724.963 222.965 725.462 224.415 727.829 227.638C729.477 229.882 731.273 233.381 731.819 235.413C732.993 239.779 735.312 241.078 737.234 238.446C738.394 236.858 738.707 236.802 739.492 238.047C739.993 238.842 740.264 239.927 740.093 240.459C739.556 242.13 745.127 244.879 747.726 244.226C749.039 243.896 751.846 241.656 753.963 239.248C757.298 235.455 758.462 235.199 757.892 238.384C757.509 240.528 759.194 243.042 761.983 244.485C766.29 246.715 772.292 251.682 772.292 253.018C772.292 253.633 771.164 255.192 769.784 256.48C768.405 257.769 766.421 260.496 765.374 262.54C762.83 267.507 755.458 274.772 752.962 274.772C750.077 274.772 745.785 277.211 744.076 279.822C743.267 281.059 741.139 282.804 739.348 283.699C730.172 288.285 719.125 292.935 716.016 293.519C712.692 294.143 712.423 293.992 710.661 290.515C709.642 288.501 708.485 284.462 708.09 281.538C707.578 277.735 706.583 275.318 704.597 273.047C703.07 271.301 701.82 269.453 701.82 268.94C701.82 268.428 700.078 266.211 697.949 264.014C695.297 261.278 693.584 258.309 692.51 254.589C691.647 251.602 689.892 247.853 688.609 246.258C679.75 235.243 677.126 231.358 675.805 227.302C674.055 221.926 672.575 221.058 671.892 225.007L671.407 227.81L668.141 223.681C663.109 217.32 662.475 220.212 667.199 227.978C669.434 231.653 672.998 238.139 675.118 242.392C677.238 246.645 679.986 251.471 681.225 253.115C682.501 254.809 683.478 257.457 683.478 259.22C683.478 262.862 684.564 265.135 688.827 270.422C690.541 272.549 692.235 275.653 692.591 277.321C693.047 279.461 694.911 281.698 698.917 284.915C705.005 289.804 708.95 294.907 709.929 299.16C710.296 300.758 711.69 302.397 713.456 303.312C716.149 304.706 717.096 304.668 725.604 302.822C730.679 301.721 736.056 300.187 737.552 299.413L740.271 298.004L740.917 301.83C741.503 305.307 740.872 306.982 734 320.179C726.61 334.369 726.265 334.838 718.918 340.645C714.782 343.914 710.454 347.916 709.3 349.539C708.146 351.161 704.454 355.544 701.096 359.277C691.295 370.172 689.963 379.755 696.463 392.598C698.114 395.86 698.759 398.33 698.368 399.891C698.042 401.19 698.251 404.469 698.831 407.179C699.745 411.445 699.642 412.586 698.06 415.689C695.778 420.167 693.962 421.777 687.581 424.978C684.794 426.377 682.513 427.934 682.513 428.439C682.513 428.944 680.558 431.561 678.169 434.254C675.779 436.948 673.825 439.589 673.825 440.125C673.825 440.66 674.72 442.855 675.815 445.003C679.097 451.444 676.891 456.111 669.025 459.374C665.709 460.749 664.62 463.557 665.44 468.618C665.87 471.27 665.597 472.153 664.096 472.957C663.06 473.512 661.187 475.579 659.933 477.55C655.976 483.772 644.601 494.782 639.433 497.392C635.121 499.57 634.018 499.762 630.85 498.886C628.056 498.114 625.802 498.236 621.119 499.414C613.533 501.322 614.338 501.401 611.4 498.46L611.4 498.46ZM738.552 190.173C741.044 188.883 741.4 188.172 741.4 184.492C741.4 181.853 740.837 179.817 739.888 179.029C739.057 178.339 737.71 176.482 736.895 174.904C735.547 172.293 735.552 172.088 736.958 172.628C738.815 173.342 741.4 172.484 741.4 171.154C741.4 170.628 740.502 168.936 739.404 167.392C737.751 165.067 737.088 164.757 735.543 165.585C734.293 166.255 733.677 166.261 733.677 165.604C733.677 165.065 731.954 163.743 729.848 162.667C725.188 160.287 723.529 157.649 724.983 154.93C726.083 152.872 730.013 151.429 731.692 152.468C733.954 153.868 734.621 151.804 732.754 149.179C728.227 142.812 721.922 143.231 714.104 150.418C709.058 155.056 708.62 156.289 711.474 157.818C712.536 158.387 713.405 159.499 713.405 160.29C713.405 161.081 715.122 163.593 717.22 165.872C722.054 171.123 722.94 173.522 722.342 179.735L721.861 184.738L728.493 188.145C732.141 190.019 735.255 191.574 735.415 191.6C735.574 191.626 736.985 190.984 738.552 190.173H738.552ZM711.957 460.163C709.231 458.615 708.843 457.798 708.132 452.093C707.563 447.534 707.8 446.543 710.524 442.111C713.292 437.606 713.492 436.738 712.881 431.845C711.999 424.78 713.5 421.067 717.601 420.166C721.465 419.317 729.826 411.927 731.829 407.59L733.36 404.275L734.424 406.613C737.101 412.496 736.829 415.081 732.171 427.984C729.679 434.888 727.006 443.147 726.23 446.336C723.747 456.544 722.337 459.006 718.271 460.225C713.942 461.524 714.361 461.528 711.957 460.163ZM1187.5 443.359C1184.42 439.984 1182.57 437.089 1182.57 435.626C1182.57 432.383 1183.09 432.666 1185.88 437.426C1187.21 439.701 1189.62 442.827 1191.23 444.372C1192.84 445.917 1194.16 447.535 1194.16 447.967C1194.16 449.826 1192.1 448.404 1187.5 443.359ZM756.846 441.987C756.846 441.455 757.28 441.02 757.811 441.02C758.342 441.02 758.777 441.455 758.777 441.987C758.777 442.518 758.342 442.953 757.811 442.953C757.28 442.953 756.846 442.518 756.846 441.987ZM1265.22 440.224C1264.87 439.672 1265.07 438.93 1265.64 438.574C1267.08 437.686 1267.58 438.392 1266.63 439.943C1266.11 440.774 1265.62 440.873 1265.22 440.224ZM763.604 438.661C763.604 438.426 764.038 437.966 764.569 437.637C765.1 437.309 765.534 437.5 765.534 438.063C765.534 438.626 765.1 439.087 764.569 439.087C764.038 439.087 763.604 438.895 763.604 438.661ZM1240.11 428.851C1239.17 426.398 1240.36 425.538 1243.03 426.752C1245.32 427.799 1245.37 427.96 1243.77 429.131C1241.53 430.77 1240.83 430.716 1240.11 428.851ZM1246.23 424.552C1244.34 423.385 1245.65 422.453 1248.65 422.824C1251 423.116 1251.05 423.222 1249.38 424.258C1248.3 424.921 1247.02 425.041 1246.23 424.552ZM1201.16 421.005C1199.17 416.731 1199.87 415.089 1201.92 419.204C1204.05 423.485 1204.09 423.625 1203.09 423.615C1202.69 423.61 1201.82 422.436 1201.16 421.005ZM1204.85 420.32C1204.81 419.301 1205.04 418.73 1205.36 419.051C1205.68 419.372 1205.71 420.206 1205.43 420.904C1205.13 421.675 1204.9 421.446 1204.85 420.32H1204.85ZM1283.44 411.039C1282.56 409.609 1283.4 408.877 1285.46 409.28C1286.97 409.575 1286.98 409.731 1285.62 410.862C1284.53 411.763 1283.92 411.813 1283.44 411.039ZM712.922 406.224C712.594 405.692 712.785 405.257 713.348 405.257C713.91 405.257 714.37 405.692 714.37 406.224C714.37 406.756 714.178 407.191 713.944 407.191C713.71 407.191 713.25 406.756 712.922 406.224ZM1136.72 397.143C1130.61 395.214 1127.84 393.423 1125.43 389.845C1122.69 385.757 1117.66 382.663 1115.09 383.479C1114.05 383.809 1112.31 385.602 1111.21 387.464C1109.34 390.633 1108.99 390.808 1105.59 390.204C1103.6 389.849 1100.81 388.481 1099.4 387.165C1097.61 385.492 1096.23 384.963 1094.83 385.408C1093.73 385.758 1092.14 385.655 1091.29 385.179C1089.96 384.436 1090.09 384.087 1092.21 382.695C1094.67 381.082 1094.68 381.06 1093.03 377.597C1091.7 374.815 1089.87 373.366 1083.9 370.357C1079.79 368.288 1075.14 366.595 1073.57 366.595C1069.98 366.595 1068.5 363.282 1071.2 361.302C1072.81 360.124 1072.58 359.832 1068.38 357.79C1063.92 355.623 1063.86 355.531 1065.99 354.348C1067.19 353.679 1069.13 353.116 1070.29 353.097C1072.56 353.061 1075.42 356.328 1075.42 358.947C1075.42 359.82 1076.36 361.73 1077.5 363.19C1079.56 365.807 1079.61 365.818 1081.12 363.928C1081.97 362.874 1084.66 360.862 1087.11 359.458L1091.56 356.904L1097.73 359.691C1101.12 361.223 1105.93 363.213 1108.43 364.113C1110.92 365.013 1115.91 367.687 1119.51 370.057C1126.39 374.581 1129.38 378.395 1127.67 380.464C1126.27 382.149 1131.76 389.828 1137.44 394.137C1143.69 398.872 1143.58 399.31 1136.72 397.143ZM1178.73 397.065C1177.97 396.146 1177.9 395.592 1178.54 395.592C1179.7 395.592 1181.06 397.426 1180.39 398.096C1180.15 398.339 1179.4 397.875 1178.73 397.065V397.065ZM1016.53 393.131C1015.13 392.356 1014.72 391.786 1015.56 391.775C1017.29 391.751 1020.05 393.36 1019.4 394.01C1019.14 394.262 1017.85 393.866 1016.53 393.131ZM1032.85 391.853C1035.59 388.004 1039.87 386.356 1043.83 387.63C1046.72 388.558 1046.76 388.636 1044.47 388.727C1043.12 388.782 1039.95 390.131 1037.44 391.726C1031.71 395.365 1030.32 395.403 1032.85 391.853ZM1172.92 393.175C1171.61 391.602 1171.93 391.405 1174.29 392.312C1175.13 392.635 1175.81 393.287 1175.81 393.762C1175.81 395.099 1174.25 394.782 1172.92 393.175ZM1177.44 392.323C1177.08 391.376 1176.81 389.875 1176.84 388.989C1176.88 387.921 1177.22 388.164 1177.83 389.71C1178.35 390.993 1178.62 392.493 1178.43 393.044C1178.25 393.594 1177.8 393.27 1177.44 392.323ZM1252.08 393.232C1252.08 392.998 1252.51 392.537 1253.04 392.209C1253.57 391.88 1254.01 392.072 1254.01 392.635C1254.01 393.198 1253.57 393.659 1253.04 393.659C1252.51 393.659 1252.08 393.467 1252.08 393.232ZM1005.18 389.173C1004.51 388.891 1004.21 388.263 1004.51 387.777C1005.25 386.582 1011.44 386.649 1012.18 387.859C1012.51 388.391 1012.21 388.832 1011.52 388.839C1010.82 388.846 1009.39 389.04 1008.32 389.269C1007.26 389.498 1005.85 389.455 1005.18 389.173V389.173ZM1019.51 388.447C1017.76 386.331 1019.78 385.687 1024.33 386.913C1028.91 388.148 1028.89 388.341 1024.14 389.2C1021.68 389.645 1020.32 389.425 1019.51 388.447ZM1164.45 387.859C1163.79 386.789 1163.67 385.926 1164.19 385.926C1164.7 385.926 1165.59 386.796 1166.16 387.859C1166.73 388.923 1166.85 389.792 1166.43 389.792C1166 389.792 1165.12 388.923 1164.45 387.859ZM1170.5 386.887C1167.92 384.032 1169.3 383.582 1171.96 386.413C1173.2 387.74 1173.78 388.826 1173.24 388.826C1172.69 388.826 1171.46 387.953 1170.5 386.887ZM989.499 386.719C986.048 386.24 981.182 385.177 978.686 384.357C976.19 383.537 973.249 383.152 972.15 383.501C969.94 384.203 960.538 381.436 960.538 380.083C960.538 376.994 969.192 376.759 973.791 379.724C975.508 380.831 976.861 380.905 980.491 380.09C984.513 379.188 985.351 379.299 987.713 381.048C989.183 382.136 990.823 383.027 991.358 383.027C993.266 383.027 999.061 386.26 998.572 387.052C998.298 387.496 997.556 387.799 996.924 387.725C996.291 387.651 992.95 387.198 989.499 386.719ZM1162.78 382.06C1161.82 380.997 1161.47 380.127 1162 380.127C1162.53 380.127 1163.75 380.997 1164.71 382.06C1165.67 383.123 1166.03 383.993 1165.49 383.993C1164.96 383.993 1163.74 383.123 1162.78 382.06ZM1156.69 380.836C1156.15 380.174 1155.42 378.33 1155.08 376.738C1154.53 374.174 1154.59 374.065 1155.62 375.777C1156.25 376.841 1157.4 378.428 1158.15 379.306C1158.96 380.236 1159.15 381.139 1158.61 381.47C1158.1 381.783 1157.24 381.497 1156.69 380.836ZM1136.25 377.763L1133.85 376.433L1137.57 375.735C1139.61 375.351 1142.76 373.745 1144.55 372.165C1146.51 370.442 1147.81 369.817 1147.8 370.603C1147.78 372.568 1146.59 374.083 1142.99 376.748C1139.22 379.532 1139.39 379.506 1136.25 377.763ZM955.161 373.999C951.615 371.976 945.218 364.149 943.135 359.284C942.012 356.66 939.437 352.338 937.414 349.68C935.391 347.022 933.068 343.543 932.253 341.948C931.438 340.353 928.961 337.308 926.75 335.182C922.088 330.698 919.22 325.987 921.175 326.021C923.707 326.064 930.228 329.694 933.025 332.618C940.741 340.682 942.321 342.117 945.964 344.364C949.479 346.533 951.143 348.789 951.31 351.613C951.341 352.145 952.341 353.667 953.531 354.996C954.722 356.325 956.968 358.825 958.522 360.551C960.077 362.277 961.63 364.97 961.973 366.535C963.097 371.659 958.976 376.175 955.161 373.999ZM760.707 373.361C760.707 372.829 761.142 372.394 761.673 372.394C762.204 372.394 762.638 372.829 762.638 373.361C762.638 373.893 762.204 374.328 761.673 374.328C761.142 374.328 760.707 373.893 760.707 373.361ZM1016.04 373.352C1015.71 372.816 1015.71 371.531 1016.03 370.497C1016.36 369.461 1015.96 367.598 1015.14 366.349C1013.8 364.294 1013.81 363.864 1015.28 361.766C1016.17 360.492 1017.22 357.072 1017.62 354.166C1018.1 350.58 1019.06 348.151 1020.6 346.609C1022.71 344.499 1023.24 344.406 1027.97 345.305C1032.04 346.077 1033.64 345.982 1035.86 344.836C1039.56 342.916 1039.83 343.002 1038.6 345.707C1037.04 349.146 1033.91 350.245 1030.61 348.515C1024.73 345.427 1016.92 350.017 1021.04 354.143C1022.55 355.66 1023.39 355.797 1026.19 354.992C1031 353.611 1032.9 353.864 1029.91 355.489C1026.53 357.328 1025.89 359.369 1027.63 362.742C1028.43 364.277 1029.08 366.657 1029.08 368.031C1029.08 370.23 1028.84 370.405 1027.14 369.494C1026.08 368.924 1024.55 366.868 1023.74 364.924C1022.27 361.416 1022.25 361.404 1020.37 363.28C1018.73 364.925 1018.62 365.655 1019.52 368.916C1020.33 371.862 1020.28 372.836 1019.26 373.48C1017.56 374.562 1016.76 374.531 1016.04 373.352H1016.04ZM1148.49 368.197C1147.58 366.806 1145.5 364.975 1143.86 364.127C1142.22 363.28 1141.1 362.369 1141.36 362.103C1142.87 360.6 1151.24 367.426 1150.53 369.571C1150.31 370.23 1149.43 369.64 1148.49 368.197ZM996.892 364.98C995.436 364.216 993.474 363.836 992.532 364.135C990.13 364.898 980.59 362.954 979.645 361.509C978.893 360.359 976.682 353.278 975.499 348.23C975.174 346.843 975.499 345.042 976.259 344C977.364 342.489 977.935 342.374 979.685 343.311C981.531 344.301 981.923 344.132 982.936 341.906C983.569 340.515 985.677 338.564 987.62 337.572C989.678 336.52 991.656 334.553 992.357 332.858C993.165 330.905 994.64 329.593 996.85 328.863C998.659 328.265 1001.27 326.289 1002.66 324.471C1004.04 322.654 1005.69 321.167 1006.32 321.167C1006.95 321.167 1008.85 322.602 1010.55 324.357L1013.64 327.548L1011.16 330.882C1008.35 334.669 1008.5 337.926 1011.69 342.407L1013.61 345.12L1011.21 346.698C1009.89 347.565 1008.81 348.809 1008.81 349.461C1008.82 351.675 1002.63 364.435 1001.08 365.405C1000 366.08 998.746 365.952 996.892 364.98ZM1052.97 364.962C1050.97 364.44 1050.7 362.729 1052.61 362.729C1053.34 362.729 1055.38 363.018 1057.15 363.372C1059.87 363.917 1060.07 364.129 1058.48 364.754C1056.38 365.575 1055.45 365.61 1052.97 364.962ZM1206.71 352.637C1206.71 352.403 1207.14 351.942 1207.67 351.613C1208.2 351.285 1208.64 351.477 1208.64 352.04C1208.64 352.603 1208.2 353.063 1207.67 353.063C1207.14 353.063 1206.71 352.871 1206.71 352.637ZM1049.59 350.015C1048.82 349.243 1048.77 348.347 1049.44 347.096C1049.97 346.103 1050.15 344.874 1049.83 344.364C1048.96 342.954 1051.14 339.531 1052.91 339.531C1054.33 339.531 1054.33 339.697 1052.85 341.329C1051.58 342.741 1051.43 343.674 1052.19 345.67C1053.72 349.706 1052.06 352.487 1049.59 350.015H1049.59ZM564.738 346.838C564.738 346.603 565.173 346.143 565.704 345.814C566.235 345.485 566.669 345.677 566.669 346.24C566.669 346.803 566.235 347.264 565.704 347.264C565.173 347.264 564.738 347.072 564.738 346.838ZM1234.22 344.364C1233.89 343.833 1234.08 343.398 1234.64 343.398C1235.21 343.398 1235.67 343.833 1235.67 344.364C1235.67 344.896 1235.48 345.331 1235.24 345.331C1235.01 345.331 1234.55 344.896 1234.22 344.364ZM570.531 335.239C570.531 335.004 570.965 334.544 571.496 334.215C572.027 333.887 572.461 334.079 572.461 334.641C572.461 335.204 572.027 335.665 571.496 335.665C570.965 335.665 570.531 335.473 570.531 335.239ZM1034.88 320.706C1033.04 316.406 1032.79 316.212 1029.96 316.836C1027.14 317.457 1027.04 317.381 1028.1 315.401C1028.97 313.761 1029.78 313.436 1031.86 313.892C1033.86 314.333 1035.14 313.888 1037.1 312.068C1038.53 310.744 1039.71 308.878 1039.72 307.923C1039.75 305.483 1043.33 313.664 1044.15 318.039C1044.77 321.36 1044.7 321.541 1043.19 320.289C1040.95 318.432 1038.79 320.359 1040.63 322.576C1041.36 323.46 1041.46 324.066 1040.86 324.066C1040.31 324.066 1039.17 324.329 1038.34 324.65C1037.22 325.08 1036.31 324.047 1034.88 320.706ZM858.867 322.414C857.788 320.659 857.174 312.783 857.954 310.693C858.781 308.476 858.843 308.503 861.302 312.142C864.25 316.504 865.193 319.301 864.221 320.795C863.29 322.224 859.462 323.382 858.867 322.414ZM1074.45 317.415C1074.45 316.883 1074.89 316.179 1075.42 315.851C1075.95 315.522 1076.38 315.688 1076.38 316.22C1076.38 316.751 1075.95 317.455 1075.42 317.784C1074.89 318.112 1074.45 317.946 1074.45 317.415ZM1226.01 317.3C1226.01 316.769 1226.2 316.334 1226.44 316.334C1226.67 316.334 1227.13 316.769 1227.46 317.3C1227.79 317.832 1227.6 318.267 1227.04 318.267C1226.47 318.267 1226.01 317.832 1226.01 317.3ZM1006.88 311.716C1006.88 311.303 1008.81 308.802 1011.18 306.159C1014.64 302.285 1015.49 301.738 1015.52 303.338C1015.54 304.43 1014.09 306.931 1012.3 308.896C1009.25 312.227 1006.88 313.462 1006.88 311.716ZM1027.78 309.137C1027.43 308.22 1027.5 306.826 1027.94 306.041C1028.62 304.824 1028.91 304.812 1029.86 305.962C1030.71 306.991 1030.67 307.724 1029.7 309.058C1028.5 310.696 1028.38 310.701 1027.78 309.137V309.137ZM288.518 305.371C289.109 304.658 289.307 303.788 288.958 303.438C288.608 303.088 289.223 302.802 290.324 302.802C291.85 302.802 292.205 303.261 291.82 304.735C291.527 305.858 290.503 306.668 289.379 306.668C287.868 306.668 287.679 306.383 288.518 305.371ZM1034.26 305.115C1033.9 304.109 1033.43 302.959 1033.22 302.56C1033 302.162 1033.24 301.835 1033.74 301.835C1034.7 301.835 1036.06 305.804 1035.34 306.523C1035.11 306.755 1034.62 306.122 1034.26 305.115ZM1024.48 302.593C1023.12 300.957 1024.44 298.629 1026.47 299.082C1027.74 299.367 1027.79 299.769 1026.77 301.659C1025.79 303.484 1025.36 303.657 1024.48 302.593ZM1035.89 299.272C1034.79 297.861 1034.04 296.546 1034.24 296.349C1035.02 295.564 1037.74 297.294 1039.18 299.5C1041.4 302.893 1038.58 302.697 1035.89 299.272ZM1020.02 295.53C1019.16 294.669 1018.46 293.464 1018.46 292.853C1018.46 292.241 1019.41 292.695 1020.58 293.861C1021.74 295.028 1022.45 296.233 1022.14 296.539C1021.84 296.844 1020.88 296.391 1020.02 295.53ZM262.257 295.392C261.903 295.037 261.614 294.298 261.614 293.749C261.614 293.143 262.064 293.2 262.756 293.894C263.385 294.523 263.674 295.262 263.4 295.537C263.125 295.811 262.611 295.746 262.257 295.392ZM256.787 294.103C256.787 293.571 256.979 293.136 257.213 293.136C257.447 293.136 257.907 293.571 258.235 294.103C258.563 294.635 258.372 295.07 257.809 295.07C257.247 295.07 256.787 294.635 256.787 294.103ZM302.159 292.17C302.159 291.638 302.351 291.203 302.585 291.203C302.819 291.203 303.279 291.638 303.607 292.17C303.935 292.701 303.744 293.136 303.182 293.136C302.619 293.136 302.159 292.701 302.159 292.17ZM1029.73 292.023C1028.77 291.476 1026.93 291.291 1025.66 291.611C1023.79 292.081 1022.5 291.328 1019 287.723C1014.06 282.631 1013.09 280.484 1014.54 277.772C1015.11 276.723 1015.56 274.558 1015.56 272.959C1015.56 267.713 1019.07 267.925 1021.65 273.327C1023.07 276.32 1023.08 276.962 1021.74 280.172C1020.3 283.628 1020.33 283.782 1022.9 286.471C1024.76 288.413 1026.15 289.072 1027.62 288.703C1028.86 288.391 1030.2 288.778 1030.93 289.659C1032.67 291.756 1031.91 293.253 1029.73 292.023H1029.73ZM296.367 285.944C296.367 285.71 296.801 285.249 297.332 284.921C297.863 284.592 298.298 284.784 298.298 285.347C298.298 285.91 297.863 286.371 297.332 286.371C296.801 286.371 296.367 286.179 296.367 285.944ZM447.929 282.504C447.929 281.973 448.364 281.538 448.895 281.538C449.426 281.538 449.86 281.973 449.86 282.504C449.86 283.036 449.426 283.471 448.895 283.471C448.364 283.471 447.929 283.036 447.929 282.504ZM293.471 278.752C293.471 278.22 293.905 277.517 294.436 277.188C294.967 276.86 295.402 277.026 295.402 277.557C295.402 278.089 294.967 278.793 294.436 279.121C293.905 279.45 293.471 279.284 293.471 278.752ZM285.272 274.783C284.934 274.235 285.321 274.073 286.181 274.403C287.853 275.046 288.159 275.738 286.77 275.738C286.271 275.738 285.597 275.308 285.272 274.783ZM438.758 274.772C438.43 274.24 438.622 273.805 439.184 273.805C439.746 273.805 440.206 274.24 440.206 274.772C440.206 275.303 440.015 275.738 439.781 275.738C439.547 275.738 439.086 275.303 438.758 274.772ZM289.127 272.839C288.799 272.307 288.99 271.872 289.552 271.872C290.115 271.872 290.575 272.307 290.575 272.839C290.575 273.37 290.383 273.805 290.149 273.805C289.915 273.805 289.455 273.37 289.127 272.839ZM293.471 272.839C293.471 272.307 293.663 271.872 293.897 271.872C294.131 271.872 294.591 272.307 294.919 272.839C295.247 273.37 295.056 273.805 294.493 273.805C293.931 273.805 293.471 273.37 293.471 272.839ZM227.102 270.265C226.438 269.997 225.895 269.379 225.895 268.892C225.895 267.498 230.157 267.857 232.227 269.425C234.007 270.773 233.956 270.842 231.205 270.798C229.612 270.773 227.766 270.534 227.102 270.265ZM251.53 269.717C250.664 269.232 248.751 269.1 247.279 269.424C245.807 269.747 243.543 269.588 242.248 269.069C240.166 268.235 240.35 268.137 243.842 268.218C248.974 268.338 250.344 267.501 249.033 265.048C248.102 263.306 248.382 263.173 252.987 263.173C257.442 263.173 263.869 265.219 264.958 266.984C265.682 268.157 253.259 270.686 251.53 269.717ZM270.047 270.328C268.903 269.183 270.325 268.006 272.853 268.006C274.371 268.006 275.14 268.461 274.892 269.214C274.447 270.567 271.063 271.345 270.047 270.328ZM968.466 268.791C965.91 266.232 968.44 263.173 973.113 263.173C975.185 263.173 975.186 263.19 973.409 266.237C971.337 269.788 970.101 270.428 968.466 268.791ZM278.025 268.593C278.025 268.384 278.677 267.962 279.473 267.656C280.27 267.35 280.921 267.521 280.921 268.036C280.921 268.551 280.27 268.972 279.473 268.972C278.677 268.972 278.025 268.801 278.025 268.593ZM236.294 261.664C235.996 261.366 233.959 261.097 231.766 261.066C228.741 261.025 228.015 260.727 228.757 259.832C229.474 258.966 228.445 257.814 224.895 255.512C217.937 250.997 214.052 250.115 209.377 251.988C204.993 253.744 204.657 253.794 204.657 252.688C204.657 250.665 212.34 248.44 217.873 248.861C223.164 249.263 226.126 250.391 236.514 255.955C245.053 260.529 245.063 260.538 242.307 261.325C239.177 262.218 236.972 262.343 236.294 261.664ZM243.272 253.507C245.144 252.296 246.168 252.296 246.168 253.507C246.168 254.039 245.191 254.467 243.996 254.459C242.24 254.447 242.101 254.265 243.272 253.507ZM1012.09 251.793C1011.5 251.407 1010.5 250.09 1009.86 248.867C1008.89 247.023 1008.99 246.128 1010.44 243.629C1012.7 239.769 1014.22 239.287 1014.95 242.202C1015.72 245.269 1013.49 252.723 1012.09 251.793ZM249.61 250.505C250.255 249.461 253.891 249.343 253.89 250.366C253.89 250.765 252.807 251.154 251.483 251.23C250.16 251.306 249.317 250.98 249.61 250.505ZM230.52 241.19C228.977 239.416 229.201 237.076 230.915 237.076C231.464 237.076 231.691 237.925 231.42 238.963C231.149 240 231.424 241.028 232.031 241.247C232.639 241.465 232.88 241.924 232.567 242.266C232.254 242.607 231.333 242.123 230.52 241.19ZM236.128 233.596C235.785 232.7 235.721 231.749 235.986 231.483C236.252 231.217 236.75 231.733 237.094 232.63C237.437 233.526 237.501 234.477 237.236 234.743C236.97 235.009 236.472 234.493 236.128 233.596ZM230.079 232.726C230.079 231.929 230.906 231.277 231.917 231.277C233.552 231.277 233.595 231.438 232.308 232.726C231.512 233.524 230.684 234.176 230.469 234.176C230.254 234.176 230.079 233.524 230.079 232.726ZM1039.7 211.536C1039.7 210.78 1038.64 208.906 1037.35 207.372C1034.29 203.731 1035.38 201.301 1039 203.678C1041.61 205.387 1042.97 208.878 1042.01 211.385C1041.28 213.286 1039.7 213.39 1039.7 211.536ZM290.575 205.72C290.575 205.485 291.009 205.025 291.54 204.696C292.071 204.368 292.506 204.559 292.506 205.122C292.506 205.685 292.071 206.146 291.54 206.146C291.009 206.146 290.575 205.954 290.575 205.72ZM1045.08 204.532C1044.45 202.899 1045.93 201.355 1048.14 201.328C1049.68 201.309 1049.71 203.47 1048.19 204.986C1046.62 206.562 1045.81 206.444 1045.08 204.532ZM1053.9 201.004C1052.02 198.14 1049.38 197.746 1043.31 199.432C1040.85 200.117 1039.15 200.125 1038.01 199.456C1037.08 198.915 1036.83 198.459 1037.45 198.443C1038.07 198.427 1039.89 197.311 1041.49 195.963C1043.56 194.225 1045.07 193.681 1046.7 194.09C1048.43 194.524 1050.29 193.694 1054.22 190.743C1061.85 184.997 1062.54 183.185 1059.44 177.046C1056.45 171.153 1057.28 169.256 1061.7 171.87C1064.92 173.772 1067.95 179.221 1067.07 181.518C1066.75 182.345 1067.23 184.94 1068.12 187.284C1069.39 190.602 1069.51 191.997 1068.66 193.577C1067.42 195.897 1063.97 197.447 1060.05 197.447C1057.85 197.447 1057.19 198.012 1056.47 200.52L1055.59 203.594L1053.9 201.004V201.004ZM662.819 197.704C661.667 196.551 662.28 195.514 664.114 195.514C665.145 195.514 666.256 195.079 666.584 194.547C667.482 193.093 669.012 193.385 668.432 194.9C667.836 196.454 663.656 198.542 662.819 197.704ZM629.901 196.032L627.004 194.704L630.866 194.639C635.675 194.558 639.218 195.461 638.521 196.59C637.744 197.848 633.224 197.556 629.901 196.032ZM590.903 186.39C587.04 184.41 586.858 184.163 588.875 183.634C591.29 183.002 596.637 183.789 596.528 184.761C596.49 185.093 596.164 186.085 595.804 186.965C595.21 188.412 594.741 188.357 590.903 186.39ZM571.554 175.933C570.718 173.533 570.784 172.615 571.87 171.528C573.832 169.563 575.357 170.944 575.357 174.686C575.357 179.107 572.935 179.901 571.554 175.933ZM548.917 176.736C549.601 174.949 552.539 174.647 551.948 176.424C551.727 177.089 550.823 177.773 549.94 177.944C548.82 178.162 548.51 177.796 548.917 176.736ZM1053.32 165.704C1051.55 163.219 1051.51 162.761 1052.81 160.896C1054.09 159.063 1054.09 158.514 1052.77 155.957C1050.6 151.753 1050.9 151.498 1054.67 154.374C1056.53 155.796 1060.2 157.599 1062.83 158.38C1068.26 159.995 1069.57 161.263 1066.74 162.163C1065.67 162.503 1064.8 163.412 1064.8 164.184C1064.8 165.235 1064.13 165.417 1062.14 164.907C1057.05 163.602 1055.6 163.921 1055.93 166.275C1056.33 169.16 1055.68 169.018 1053.32 165.704H1053.32ZM573.105 166.839C571.985 165.718 572.407 163.845 573.909 163.268C574.956 162.866 575.357 163.374 575.357 165.097C575.357 167.418 574.412 168.148 573.105 166.839ZM1047.2 146.461C1046.38 145.531 1044.4 142.159 1042.81 138.968C1041.22 135.778 1037 129.918 1033.45 125.948C1029.47 121.511 1027.45 118.57 1028.21 118.318C1028.89 118.092 1030.34 119.103 1031.43 120.564C1034.09 124.105 1037.36 127.18 1042.52 130.988C1046.8 134.144 1048.91 137.066 1046.15 136.005C1042.97 134.782 1043.76 137.685 1047.88 142.328C1050.28 145.035 1052.25 147.453 1052.25 147.701C1052.25 148.877 1048.52 147.961 1047.2 146.461ZM340.774 144.769C340.774 143.972 341.195 143.32 341.709 143.32C342.223 143.32 342.394 143.972 342.088 144.769C341.783 145.567 341.362 146.219 341.153 146.219C340.945 146.219 340.774 145.567 340.774 144.769ZM335.729 141.65L332.133 141.273L338.9 134.564C342.623 130.874 346.155 127.855 346.749 127.855C347.377 127.855 347.189 128.565 346.301 129.547C344.291 131.77 345.662 134.268 349.334 135.076C350.938 135.428 352.536 136.659 353.153 138.016C354.145 140.194 353.977 140.416 350.632 141.346C347.123 142.321 342.935 142.407 335.729 141.65ZM100.5 134.716C97.156 131.588 96.783 130.271 99.0005 129.419C100.986 128.656 104.652 131.143 106.041 134.196C107.499 137.4 107.473 137.52 105.327 137.52C104.321 137.52 102.149 136.258 100.5 134.716ZM525.641 129.805C526.703 129.281 528.793 128.411 530.285 127.872C533.572 126.684 533.027 125.419 528.869 124.586C526.017 124.015 525.917 123.87 527.549 122.675C528.52 121.964 529.032 120.923 528.686 120.363C528.332 119.79 529.325 118.901 530.952 118.333C532.544 117.778 533.847 116.894 533.847 116.369C533.847 114.137 531.834 110.381 530.716 110.527C528.139 110.864 526.945 110.409 527.361 109.248C527.599 108.584 527.403 107.279 526.925 106.349C525.682 103.93 528.538 98.9268 531.192 98.8726C531.59 98.8652 531.807 99.3911 531.675 100.043C531.542 100.695 532.453 101.383 533.699 101.572L535.965 101.916L533.8 104.224L531.635 106.531L534.075 107.46C536.695 108.457 539.22 111.706 541.791 117.387C543.022 120.109 543.832 120.821 545.27 120.444C548.22 119.672 548.57 121.674 545.802 123.489C543.927 124.719 543.571 125.413 544.393 126.235C545.214 127.057 543.595 127.609 537.98 128.42C533.848 129.017 528.948 129.788 527.089 130.132C524.504 130.611 524.164 130.535 525.641 129.805ZM509.361 124.466C509.031 123.604 509.408 121.647 510.199 120.116C511.106 118.359 511.281 117.113 510.674 116.737C509.002 115.702 509.629 114.381 512.086 113.763C513.392 113.435 514.966 112.557 515.583 111.812C516.87 110.26 522.816 109.974 523.709 111.421C524.037 111.952 523.628 113.354 522.801 114.536C521.974 115.719 521.297 117.843 521.297 119.256C521.297 121.412 520.635 122.056 517.194 123.252C514.938 124.036 512.387 124.983 511.527 125.355C510.517 125.792 509.749 125.476 509.361 124.466ZM527.089 114.863C527.089 114.629 527.524 114.168 528.055 113.839C528.586 113.511 529.02 113.703 529.02 114.266C529.02 114.829 528.586 115.289 528.055 115.289C527.524 115.289 527.089 115.097 527.089 114.863ZM98.6601 110.206C97.7145 109.065 97.7747 108.533 98.9613 107.547C100.923 105.917 101.896 107.023 100.754 109.585C99.967 111.352 99.6805 111.437 98.6601 110.206ZM97.1505 102.937C96.8245 102.409 97.2046 101.439 97.9952 100.782C99.5648 99.4778 99.8926 100.501 98.5731 102.586C98.069 103.382 97.5105 103.52 97.1505 102.937ZM34.7532 102.32C34.7532 101.64 37.6804 100.451 41.833 99.4438C43.4071 99.062 44.3378 99.1541 44.0251 99.6607C43.7262 100.145 42.2779 100.784 40.8068 101.082C39.3356 101.379 37.3717 101.917 36.4426 102.276C35.5134 102.636 34.7532 102.656 34.7532 102.32V102.32ZM608.421 91.4517C606.64 90.7322 606.955 89.6231 608.984 89.4701C609.958 89.3966 610.754 89.9565 610.754 90.7142C610.754 92.1533 610.42 92.2591 608.421 91.4517ZM396.282 86.5115C390.173 83.176 387.253 78.0514 389.023 73.7727C389.861 71.7477 389.887 70.4743 389.118 69.0373C387.52 66.0466 389.605 62.5418 394.939 59.2559C397.473 57.6951 400.002 55.5638 400.56 54.5196C402.107 51.6267 400.729 46.669 398.038 45.4414C396.676 44.8201 395.935 43.8376 396.236 43.0524C396.921 41.2643 393.707 35.1573 390.506 32.1651C388.15 29.9628 387.137 29.7435 379.069 29.6906C368.083 29.6186 366.037 29.0071 366.219 25.8511C366.294 24.5401 366.585 23.4671 366.864 23.4667C367.143 23.4664 371.053 23.0127 375.552 22.4586C381.297 21.7511 386.447 20.292 392.85 17.558C402.764 13.3252 403.519 13.2425 427.174 13.7991C434.643 13.9749 441.515 13.4214 450.343 11.933C458.563 10.5468 464.612 10.0243 467.879 10.4182C470.654 10.7528 474.672 10.5321 476.941 9.92044C482.206 8.50105 495.884 10.2084 501.264 12.9565C504.445 14.5811 506.128 14.7957 511.495 14.2607C517.292 13.6828 517.73 13.7588 515.987 15.0402C514.926 15.8211 511.667 16.7749 508.747 17.1599C502.41 17.9953 496.588 22.5174 498.131 25.4046C498.797 26.6501 498.319 27.7132 496.167 29.7778C494.603 31.278 493.095 33.2276 492.815 34.1102C492.143 36.2304 483.608 40.1766 479.377 40.3237C474.677 40.4871 474.185 41.4875 477.82 43.492C479.537 44.4389 482.043 46.0524 483.39 47.0774L485.838 48.9412L483.625 49.7609C481.928 50.3893 480.552 49.9842 477.729 48.0254C473.898 45.3672 469.776 45.3539 471.975 48.0067C472.833 49.0413 472.626 49.4431 471.021 49.8633C467.434 50.8026 469.971 52.66 473.928 51.9908C476.446 51.5648 477.862 51.7893 478.649 52.7393C479.586 53.8696 478.364 54.393 471.333 55.8726C466.691 56.8496 460.503 57.6848 457.583 57.7284C452.158 57.8096 448.249 59.3689 442.498 63.7453C440.622 65.1724 436.637 66.5867 431.973 67.4801C422.227 69.3473 418.933 71.5067 413.06 79.8797C408.343 86.605 405.498 89.1116 402.557 89.1353C401.761 89.1419 398.937 87.961 396.282 86.5115ZM327.833 80.047C325.76 78.7716 323.22 76.393 322.188 74.7611C320.173 71.5752 318.316 71.1705 312.877 72.7323C311.036 73.261 308.97 73.3119 308.143 72.849C305.285 71.2472 310.448 69.6719 316.199 70.3913C320.573 70.9384 321.544 70.7825 322.054 69.4518C323.079 66.7781 327.769 64.862 330.377 66.0516C331.982 66.784 333.441 66.7635 335.492 65.98C338.25 64.9259 338.288 64.8307 336.486 63.5061C335.456 62.7484 334.28 62.1284 333.872 62.1284C333.465 62.1284 331.996 60.1867 330.607 57.8135C329.218 55.4403 326.614 52.5909 324.821 51.4815C321.774 49.596 321.371 49.5629 318.646 50.9739C316.263 52.2076 314.887 52.294 311.117 51.4464C308.579 50.8759 305.037 50.6838 303.244 51.0194C300.134 51.6017 294.436 50.078 294.436 48.6641C294.436 46.0667 302.612 40.2376 307.469 39.3724L311.33 38.6844L308.57 41.6289C304.762 45.6905 306.194 47.5598 310.329 43.925C312.083 42.3832 315.114 40.8218 317.065 40.4554C320.046 39.8954 321.323 40.2606 325.066 42.743C330.047 46.0459 330.43 46.1345 333.239 44.6295C334.93 43.7232 335.558 43.9721 337.394 46.2784C338.665 47.8736 341.502 49.6107 344.268 50.4871C348.678 51.884 348.979 52.1879 348.979 55.2327C348.979 57.516 349.637 58.9568 351.185 60.0655C357.664 64.7045 357.523 64.5129 356.121 66.7603C354.199 69.8419 352.681 70.0652 348.427 67.8923C345.468 66.3807 344.175 66.1733 342.685 66.9716C340.862 67.9485 340.843 68.1572 342.31 70.9985C343.515 73.3304 343.625 74.5078 342.806 76.3063C341.798 78.5225 341.637 78.5567 338.899 77.1389C333.515 74.3516 329.89 76.1857 334.912 79.1559C336.485 80.0864 337.553 81.2029 337.286 81.637C336.351 83.1517 331.574 82.3483 327.833 80.047V80.047ZM526.124 81.2986C526.124 80.8556 526.775 80.4931 527.572 80.4931C528.368 80.4931 529.02 80.8556 529.02 81.2986C529.02 81.7416 528.368 82.104 527.572 82.104C526.775 82.104 526.124 81.7416 526.124 81.2986ZM291.435 76.1005C289.531 75.0986 288.053 75.0129 285.388 75.7497C280.857 77.0024 279.272 76.0857 281.572 73.5417C284.515 70.2849 286.512 69.6444 290.062 70.8176C294.058 72.1381 295.832 74.1007 294.754 76.0095C294.067 77.2263 293.598 77.2392 291.435 76.1005ZM483.165 75.6603C481.572 74.6117 479.545 73.9831 478.66 74.2634C477.441 74.6496 477.17 74.3144 477.544 72.8817C478.119 70.6827 486.601 67.5088 489.468 68.42C490.468 68.7377 493.023 68.4764 495.146 67.8395C498.479 66.8397 499.363 66.9153 501.616 68.3936L504.225 70.1056L501.901 71.9194C499.939 73.4503 496.3 74.7786 487.509 77.1726C486.713 77.3895 484.758 76.7089 483.165 75.6603ZM221.069 57.6171C219.741 57.407 216.508 56.2701 213.883 55.0906L209.111 52.9461L215.814 52.4628C219.5 52.197 222.517 51.5446 222.517 51.013C222.517 50.4814 219.91 49.8133 216.724 49.5284C212.518 49.1522 211.725 48.8875 213.828 48.5618C217.35 48.0165 217.603 46.4896 214.311 45.6571C211.94 45.0576 211.958 45.021 215.292 43.5823C221.072 41.0891 227.228 40.6114 232.682 42.2331C237.16 43.5646 237.86 43.559 239.971 42.1739C241.464 41.1944 242.35 41.0305 242.427 41.7195C242.494 42.3123 242.602 43.3047 242.669 43.9249C242.893 46.0188 244.818 45.7479 247.116 43.2991C249.243 41.0321 252.93 39.9461 252.922 41.589C252.92 41.9878 252.061 43.7216 251.014 45.442L249.109 48.57L252.224 50.1972L255.339 51.8245L250.224 54.162C245.608 56.2713 244.662 56.3919 240.524 55.3982C236.513 54.4347 235.362 54.5449 231.32 56.2796C226.755 58.2389 225.792 58.3645 221.069 57.6171ZM259.786 56.9361C258.914 55.8842 259.274 55.3665 261.527 54.432C263.096 53.7815 265.345 53.5647 266.551 53.9478C268.642 54.6122 268.594 54.7167 265.416 56.4114C261.361 58.5736 261.159 58.5924 259.786 56.9361ZM526.124 52.4628C527.995 51.2518 529.02 51.2518 529.02 52.4628C529.02 52.9945 528.042 53.4227 526.848 53.4146C525.091 53.4027 524.953 53.2205 526.124 52.4628ZM703.268 49.7813C698.333 47.8294 698.434 47.9361 699.87 46.2036C700.542 45.3933 700.712 44.7165 700.249 44.6996C699.786 44.6827 700.276 44.0116 701.338 43.2082C702.399 42.4048 703.276 41.44 703.284 41.0642C703.318 39.6346 707.249 35.8644 710.026 34.5975C711.619 33.8709 715.746 33.0519 719.197 32.7776C722.648 32.5033 727.271 32.0007 729.469 31.6607C731.809 31.2989 733.717 31.4468 734.069 32.0175C734.753 33.1264 733.447 33.5977 725.954 34.9455C718.519 36.2829 714.05 38.367 711.107 41.8695C708.006 45.5592 707.902 47.8889 710.75 49.8778L712.922 51.3949L710.026 51.3517C708.433 51.328 705.392 50.6212 703.268 49.7813V49.7813ZM197.663 46.9788C196.106 45.42 196.461 45.0806 203.931 40.9865C212.682 36.1895 217.08 35.5527 224.93 37.9457L229.274 39.27L223.482 40.4199C218.745 41.3604 208.706 44.7215 200.779 48.0213C199.97 48.3579 198.574 47.8908 197.663 46.9788ZM267.406 45.7278C267.406 45.2132 266.211 44.1056 264.751 43.2665L262.097 41.7408L265.651 42.3005C268.177 42.6982 269.434 42.4613 269.995 41.4822C270.663 40.3176 276.807 37.9875 279.257 37.9698C279.668 37.9666 279.332 39.2678 278.509 40.8608C276.572 44.6128 267.406 48.6304 267.406 45.7278ZM282.436 42.9056C281.053 40.665 290.499 37.1966 294.512 38.4717C297.436 39.401 295.482 40.998 290.381 41.847C288.098 42.2268 285.514 42.8432 284.639 43.2166C283.763 43.5901 282.772 43.4501 282.436 42.9056ZM313.261 35.7881C306.889 35.2807 301.558 34.7551 301.412 34.6202C300.549 33.8183 302.702 31.2079 305.019 30.2469C307.297 29.3022 308.347 29.4275 311.466 31.0168C314.506 32.5659 316.465 32.8234 322.113 32.4159C325.919 32.1412 330.264 32.2281 331.766 32.609L334.499 33.3014L331.12 35.1091C329.262 36.1034 327.09 36.8705 326.293 36.8138C325.497 36.7571 319.632 36.2956 313.261 35.7881ZM591.071 31.8379C586.329 29.4072 585.872 28.3048 589.597 28.284C591.057 28.2759 592.903 27.7999 593.699 27.2263C594.951 26.3247 594.934 26.251 593.576 26.6823C592.711 26.9567 591.498 26.6749 590.881 26.0566C590.027 25.2015 589.582 25.2167 589.024 26.1198C588.508 26.956 587.448 27.0549 585.444 26.454C580.354 24.9277 579.219 24.25 579.219 22.7367C579.219 21.4548 580.495 21.3374 588.39 21.893C594.402 22.3162 597.561 22.1989 597.561 21.5524C597.561 19.6497 600.239 20.5893 600.95 22.7411L601.667 24.9159L602.095 22.7411C602.33 21.545 603.143 20.5663 603.903 20.5663C604.662 20.5663 605.284 20.0444 605.284 19.4065C605.284 18.5043 605.541 18.5043 606.442 19.4065C607.116 20.0812 610.347 20.5663 614.165 20.5663C621.067 20.5663 622.688 21.8019 618.085 23.5541C615.693 24.4647 611.533 24.2071 606.973 22.8661C606.044 22.5928 605.286 22.7247 605.29 23.1593C605.296 24.0512 610.721 27.3323 612.188 27.3323C612.714 27.3323 613.754 27.9425 614.499 28.6882C615.661 29.8518 615.651 30.1218 614.43 30.591C613.647 30.8918 613.007 30.6681 613.007 30.094C613.007 29.4192 611.779 29.2809 609.533 29.7027C607.101 30.1596 606.257 30.0342 606.72 29.2847C607.083 28.6959 606.856 27.5808 606.214 26.8066C604.976 25.3132 601.422 24.856 601.422 26.1901C601.422 26.6252 600.01 28.544 598.285 30.4541L595.147 33.9271L591.072 31.8379L591.071 31.8379ZM334.982 29.7116C333.308 28.7279 330.94 28.443 327.259 28.7821C323.817 29.0991 321.171 28.8258 319.738 28.0054C317.763 26.8743 318.246 26.7454 324.275 26.7943C331.814 26.8554 335.125 25.2395 331.042 23.4916C329.103 22.6613 329.386 22.5859 332.71 23.0471C337.051 23.6491 338.738 22.4848 336.373 20.5196C333.852 18.4241 336.624 17.7735 345.597 18.3556C351.15 18.7157 354.639 18.5137 356.065 17.7495C358.797 16.2854 357.725 14.4217 354.602 15.2065C352.444 15.7489 337.464 14.8588 338.096 14.2257C338.548 13.7733 359.771 11.8054 373.706 10.9237C380.934 10.4664 388.97 9.82846 391.565 9.50608L396.282 8.91992L388.495 12.6652C381.194 16.1766 369.32 19.5998 364.443 19.5998C363.255 19.5998 359.841 20.9046 356.856 22.4995C353.872 24.0943 350.831 25.3992 350.099 25.3992C349.367 25.3992 346.21 26.6985 343.082 28.2866C339.954 29.8747 337.395 31.1641 337.395 31.152C337.395 31.1399 336.309 30.4917 334.982 29.7116ZM316.157 20.8809C311.478 19.8444 311.307 19.4545 314.745 17.6703C319.757 15.0697 324.499 14.4032 326.655 15.9964C328.362 17.2577 328.263 17.4527 324.91 19.4333C321.416 21.4974 319.998 21.7319 316.157 20.8809Z" fill="#AEABA8"/>
</svg>
